<svg xmlns="http://www.w3.org/2000/svg" xmlns:v="https://svgstorm.com"
viewBox = "0 0 1563 1563"
width="1563"
height="1563">
<g fill="None" fill-opacity="0.0" stroke="#000000" stroke-opacity="0.00" stroke-width="0.3"><path d="
M 0.00 1563.00 
L 1563.00 1563.00
L 1563.00 0.00
L 0.00 0.00
L 0.00 1563.00
M 1194.00 490.00 
C 1204.88 489.81 1215.58 488.09 1226.22 487.22 C 1236.87 486.36 1245.92 484.42 1256.22 482.22 C 1266.52 480.02 1274.83 478.96 1285.02 475.02 C 1295.22 471.09 1298.85 470.37 1310.08 465.08 C 1321.30 459.78 1323.17 472.47 1311.92 475.92 C 1300.68 479.37 1296.41 483.47 1285.98 485.98 C 1275.54 488.48 1268.23 491.12 1257.98 492.98 C 1247.73 494.83 1237.30 496.87 1227.00 498.00 C 1216.70 499.12 1204.98 499.94 1194.99 500.99 C 1185.01 502.04 1186.12 515.15 1182.07 523.07 C 1178.03 531.00 1176.06 541.02 1172.08 549.08 C 1168.09 557.13 1165.72 565.66 1161.69 573.69 C 1157.67 581.73 1154.03 590.01 1150.08 598.08 C 1146.12 606.14 1140.84 612.14 1137.70 620.70 C 1134.55 629.25 1125.96 632.41 1124.08 642.08 C 1122.21 651.75 1124.14 666.42 1123.00 677.00 C 1121.86 687.58 1123.87 700.34 1124.00 711.00 C 1124.13 721.66 1124.94 734.71 1126.00 745.00 C 1127.06 755.29 1129.20 765.34 1131.00 775.00 C 1132.80 784.66 1136.74 791.70 1140.77 800.23 C 1144.80 808.76 1155.21 814.48 1164.07 811.07 C 1172.93 807.67 1176.89 801.31 1182.25 794.25 C 1187.60 787.19 1191.33 779.40 1195.92 771.92 C 1200.52 764.45 1204.45 757.26 1208.31 749.31 C 1212.16 741.35 1216.17 734.00 1219.77 725.77 C 1223.38 717.54 1227.23 709.19 1230.78 700.78 C 1234.32 692.36 1237.20 684.57 1240.93 675.93 C 1244.65 667.29 1248.63 658.22 1248.00 648.00 C 1247.37 637.78 1250.02 624.74 1251.00 615.00 C 1251.98 605.26 1256.29 595.78 1257.78 586.78 C 1259.27 577.78 1265.30 568.17 1275.01 568.01 C 1284.72 567.85 1292.93 571.28 1300.25 577.75 C 1307.56 584.23 1307.62 595.02 1305.22 604.22 C 1302.82 613.42 1301.55 625.24 1300.01 635.01 C 1298.47 644.78 1297.63 657.87 1298.00 668.00 C 1298.37 678.13 1299.53 688.39 1305.75 696.25 C 1311.97 704.11 1322.45 701.96 1330.25 697.25 C 1338.04 692.53 1341.10 685.07 1344.92 676.92 C 1348.75 668.78 1352.09 659.88 1354.98 650.98 C 1357.86 642.07 1360.51 633.44 1362.93 623.93 C 1365.34 614.41 1366.90 604.01 1368.98 593.98 C 1371.05 583.94 1370.53 571.70 1371.00 561.00 C 1371.47 550.30 1369.37 537.30 1370.00 527.00 C 1370.63 516.70 1379.12 510.70 1388.00 509.00 C 1396.89 507.31 1405.05 511.35 1411.25 518.75 C 1417.45 526.15 1420.84 533.23 1422.99 543.01 C 1425.14 552.78 1425.63 565.03 1425.00 576.00 C 1424.37 586.97 1426.04 599.86 1425.00 611.00 C 1423.96 622.14 1424.37 634.62 1424.00 646.00 C 1423.63 657.38 1423.21 668.58 1423.00 680.00 C 1422.80 691.42 1421.23 702.57 1421.00 714.00
C 1427.86 707.13 1435.30 701.92 1442.23 695.23 C 1449.16 688.54 1456.17 683.22 1462.75 675.75 C 1469.33 668.28 1476.35 663.72 1481.92 654.92 C 1487.49 646.12 1495.68 644.05 1499.75 632.75 C 1503.83 621.46 1518.35 621.48 1512.23 633.23 C 1506.11 644.98 1501.79 647.07 1495.25 656.25 C 1488.71 665.42 1482.73 669.70 1475.75 677.75 C 1468.77 685.80 1462.79 689.97 1455.25 697.25 C 1447.71 704.52 1443.00 709.67 1434.25 716.25 C 1425.51 722.84 1418.95 729.99 1420.00 742.00 C 1421.05 754.01 1417.18 766.90 1417.00 779.00 C 1416.83 791.10 1414.78 803.96 1414.00 816.00 C 1413.22 828.04 1410.43 840.45 1409.22 852.22 C 1408.01 863.99 1406.10 875.76 1404.02 887.02 C 1401.95 898.28 1400.35 910.14 1398.00 921.00 C 1395.66 931.86 1392.60 942.37 1389.68 952.68 C 1386.76 962.98 1383.53 973.08 1379.68 982.68 C 1375.83 992.27 1371.45 1000.61 1366.23 1009.23 C 1361.01 1017.85 1356.32 1024.98 1349.70 1032.70 C 1343.07 1040.42 1336.35 1046.03 1328.25 1052.25 C 1320.16 1058.47 1310.01 1061.17 1299.99 1063.99 C 1289.97 1066.81 1275.10 1069.37 1264.00 1068.00 C 1252.90 1066.63 1241.75 1064.31 1231.93 1060.07 C 1222.10 1055.84 1215.90 1051.17 1208.25 1043.75 C 1200.60 1036.34 1196.25 1029.19 1193.08 1018.92 C 1189.90 1008.66 1190.64 992.03 1192.33 981.33 C 1194.02 970.63 1197.30 959.54 1200.78 949.78 C 1204.25 940.01 1208.68 931.20 1213.31 922.31 C 1217.93 913.41 1223.04 905.49 1228.30 897.30 C 1233.57 889.12 1239.85 882.32 1245.75 874.75 C 1251.65 867.19 1257.73 860.32 1264.25 853.25 C 1270.76 846.17 1276.66 839.72 1283.75 832.75 C 1290.85 825.79 1297.55 819.22 1304.75 812.75 C 1311.96 806.28 1318.67 800.34 1325.75 793.75 C 1332.84 787.16 1340.53 782.59 1347.25 775.25 C 1353.96 767.91 1365.78 765.55 1366.00 754.00 C 1366.22 742.45 1367.88 728.27 1368.00 716.00 C 1368.12 703.73 1369.73 690.55 1370.00 678.00 C 1370.27 665.45 1370.63 649.88 1369.00 638.00
C 1359.53 671.32 1351.00 701.92 1322.75 725.75 C 1294.51 749.59 1248.52 719.18 1250.00 683.00
C 1238.49 708.35 1228.77 737.05 1214.23 761.23 C 1199.69 785.41 1190.38 810.14 1165.92 827.92 C 1141.46 845.69 1102.65 829.77 1094.68 799.32 C 1086.70 768.87 1080.21 730.63 1082.00 697.00
C 1071.23 712.50 1061.95 729.09 1050.25 744.25 C 1038.55 759.40 1029.16 774.18 1014.25 787.25 C 999.34 800.31 983.89 811.25 963.93 815.93 C 943.96 820.61 919.81 812.68 905.25 797.75 C 890.70 782.81 885.12 761.42 882.00 742.00
C 874.56 762.40 862.14 782.68 848.75 799.75 C 835.36 816.83 809.99 835.20 789.75 818.25 C 769.52 801.29 773.28 769.87 769.00 747.00
C 759.88 776.05 737.64 804.73 721.25 829.25 C 704.86 853.76 662.94 885.18 642.25 850.75 C 621.55 816.33 637.74 773.56 642.00 738.00
C 623.59 743.75 602.39 746.32 583.00 742.00
C 580.54 765.94 574.70 794.06 571.22 817.22 C 567.74 840.38 559.32 864.55 552.23 885.23 C 545.13 905.91 525.01 929.24 502.93 917.07 C 480.84 904.91 477.55 884.65 470.22 862.78 C 462.90 840.90 463.33 809.09 460.00 786.00
C 454.19 809.69 443.99 830.51 427.25 849.25 C 410.51 867.99 379.41 870.39 362.25 849.75 C 345.09 829.11 340.78 801.13 342.00 774.00
C 316.02 792.83 279.07 784.80 257.00 764.00
C 250.52 781.54 246.83 802.82 240.68 820.68 C 234.53 838.53 229.38 857.59 221.22 874.22 C 213.07 890.86 206.00 906.91 187.32 913.32 C 168.64 919.73 147.67 909.03 134.75 895.25 C 121.83 881.47 113.27 868.79 104.69 852.31 C 96.12 835.82 88.67 819.62 82.07 801.93 C 75.48 784.23 68.80 766.34 63.22 747.78 C 57.65 729.21 51.48 709.51 46.67 690.33 C 41.87 671.14 35.93 651.72 32.01 631.99 C 28.09 612.27 21.14 592.95 18.22 572.78 C 15.30 552.61 29.49 536.49 51.02 533.02 C 72.56 529.56 74.79 560.10 77.78 578.22 C 80.77 596.35 86.08 620.16 89.99 639.01 C 93.91 657.86 99.73 679.07 103.98 698.02 C 108.22 716.98 114.95 736.55 119.93 755.07 C 124.91 773.60 132.75 792.17 139.31 809.69 C 145.86 827.22 155.08 841.86 164.92 857.08 C 174.75 872.31 199.28 883.01 211.25 866.25 C 223.21 849.48 224.68 832.38 231.78 813.78 C 238.87 795.18 241.48 774.14 247.00 755.00
C 236.13 744.53 229.30 734.16 222.23 720.77 C 215.16 707.39 209.47 694.17 205.02 678.98 C 200.58 663.78 195.43 648.59 193.07 631.93 C 190.72 615.27 187.66 595.64 187.00 578.00 C 186.35 560.35 186.69 537.04 187.78 519.78 C 188.87 502.52 191.17 483.90 194.99 467.99 C 198.81 452.09 203.20 437.69 210.92 423.92 C 218.64 410.15 225.35 400.30 241.07 395.07 C 256.80 389.85 271.68 400.34 276.92 416.08 C 282.16 431.81 286.14 448.41 287.00 466.00 C 287.86 483.59 290.11 504.64 289.00 523.00 C 287.89 541.36 286.87 560.08 285.07 578.07 C 283.28 596.07 282.37 614.91 279.22 632.22 C 276.07 649.53 275.85 666.99 271.67 683.67 C 267.49 700.35 268.21 717.53 262.67 733.67 C 257.13 749.81 265.73 760.18 281.08 767.92 C 296.43 775.66 312.61 775.29 329.08 769.08 C 345.54 762.86 344.12 743.33 347.33 728.33 C 350.54 713.33 357.17 698.79 364.77 685.77 C 372.37 672.76 380.28 663.45 392.25 654.25 C 404.21 645.04 421.73 638.71 437.02 641.98 C 452.32 645.25 460.64 658.97 468.00 671.00
C 469.74 658.38 472.30 638.99 476.78 627.78 C 481.26 616.57 480.94 595.82 495.03 593.03 C 509.11 590.23 519.55 602.17 528.77 612.23 C 537.99 622.29 532.73 641.90 528.68 654.68 C 524.62 667.45 522.41 683.65 520.00 698.00 C 517.60 712.35 514.10 728.72 513.07 744.07 C 512.05 759.43 509.61 778.20 510.00 794.00 C 510.39 809.80 508.19 831.12 511.00 846.00 C 513.81 860.88 510.35 876.90 519.92 889.08 C 529.50 901.25 544.09 881.68 545.93 869.93 C 547.76 858.17 555.57 841.88 557.33 828.33 C 559.09 814.78 564.35 798.50 565.98 783.98 C 567.60 769.45 570.22 751.77 572.00 737.00
C 560.37 729.34 557.31 718.58 555.00 706.00 C 552.70 693.42 558.86 676.51 560.93 664.93 C 562.99 653.34 570.83 635.87 584.00 639.00 C 597.17 642.13 606.17 648.63 609.78 661.22 C 613.38 673.82 607.04 687.63 603.01 701.01 C 598.98 714.38 602.92 730.94 619.01 728.01 C 635.09 725.08 642.63 721.34 655.23 716.23 C 667.83 711.12 677.48 698.96 689.70 708.30 C 701.92 717.65 689.53 733.48 689.07 746.07 C 688.62 758.67 682.67 774.43 683.22 788.22 C 683.77 802.01 679.76 820.55 686.32 833.68 C 692.89 846.80 707.20 830.92 713.30 822.30 C 719.40 813.68 727.08 803.83 732.92 793.92 C 738.76 784.01 745.13 773.34 750.32 762.32 C 755.52 751.30 760.50 740.60 765.77 728.77 C 771.04 716.94 772.75 702.57 774.00 689.00 C 775.25 675.42 778.11 660.46 780.98 646.98 C 783.84 633.50 784.81 620.63 790.78 607.78 C 796.75 594.92 812.28 600.55 823.08 607.92 C 833.88 615.29 836.26 630.73 831.07 643.07 C 825.88 655.41 825.36 669.85 822.00 683.00 C 818.65 696.16 816.68 710.18 815.01 724.01 C 813.33 737.84 812.43 756.26 814.00 770.00 C 815.57 783.74 816.82 796.60 827.00 806.00
C 839.12 797.21 846.32 785.77 854.30 773.30 C 862.29 760.84 868.48 747.65 874.92 733.92 C 881.37 720.20 887.26 703.80 890.93 688.93 C 894.59 674.06 900.58 658.79 906.92 644.92 C 913.27 631.06 920.48 618.93 929.92 606.92 C 939.36 594.90 948.61 586.69 962.23 579.23 C 975.85 571.77 996.99 571.69 1009.75 582.25 C 1022.51 592.82 1026.95 610.40 1024.00 626.00 C 1021.06 641.60 1014.06 654.93 1004.08 667.08 C 994.11 679.24 983.71 685.78 970.92 693.92 C 958.13 702.06 938.44 703.03 936.67 719.67 C 934.91 736.31 933.19 758.81 937.99 774.01 C 942.80 789.21 954.29 803.02 970.00 802.00 C 985.71 800.98 996.75 788.48 1007.75 778.75 C 1018.75 769.03 1027.18 758.56 1035.75 746.75 C 1044.32 734.94 1053.23 723.74 1060.30 710.31 C 1067.38 696.87 1080.60 688.31 1081.00 671.00 C 1081.40 653.69 1080.97 629.22 1081.98 610.98 C 1082.98 592.74 1082.67 572.16 1084.93 553.93 C 1087.19 535.70 1087.12 516.14 1090.00 498.00
C 1080.45 497.35 1070.76 496.87 1061.33 495.67 C 1051.90 494.47 1042.59 493.68 1033.00 493.00 C 1023.41 492.32 1014.87 492.99 1004.99 493.99 C 995.12 494.99 991.14 499.12 981.75 502.75 C 972.37 506.39 977.02 516.62 969.75 521.75 C 962.49 526.88 958.91 511.57 964.75 505.75 C 970.60 499.93 972.70 494.05 981.08 491.08 C 989.46 488.10 996.45 484.06 1005.67 483.67 C 1014.89 483.28 1025.42 480.57 1035.00 482.00 C 1044.58 483.43 1053.42 483.83 1063.00 485.00 C 1072.58 486.17 1082.07 488.13 1092.00 488.00
C 1095.52 460.96 1102.91 429.57 1109.98 403.98 C 1117.05 378.38 1128.03 355.39 1141.77 333.77 C 1155.51 312.15 1190.35 296.64 1208.25 320.75 C 1226.15 344.86 1217.35 379.62 1214.22 407.22 C 1211.09 434.82 1200.59 463.12 1194.00 490.00
M 841.00 506.00 
C 858.51 509.63 870.11 531.78 862.67 547.67 C 855.24 563.57 851.69 585.37 830.00 583.00 C 808.31 580.63 802.61 558.98 810.32 543.32 C 818.04 527.67 816.15 500.85 841.00 506.00
M 607.00 861.00 
C 601.04 926.84 586.00 990.40 579.00 1056.00
C 587.34 1053.37 595.10 1053.01 603.67 1050.67 C 612.24 1048.33 620.09 1047.73 629.02 1047.98 C 637.96 1048.22 642.14 1060.09 631.93 1060.93 C 621.71 1061.76 615.33 1059.94 606.31 1063.31 C 597.28 1066.67 593.46 1068.62 583.98 1070.98 C 574.49 1073.33 574.30 1081.25 573.00 1090.00 C 571.71 1098.76 569.83 1106.85 568.67 1115.67 C 567.51 1124.49 565.81 1133.83 564.67 1142.67 C 563.53 1151.52 561.85 1160.13 561.00 1169.00 C 560.15 1177.87 557.79 1186.17 557.01 1195.01 C 556.23 1203.85 554.61 1212.63 553.22 1221.22 C 551.83 1229.81 551.78 1239.72 550.00 1248.00 C 548.22 1256.28 549.00 1266.69 546.22 1274.22 C 543.45 1281.75 549.32 1295.96 539.99 1297.99 C 530.66 1300.02 531.67 1282.82 531.67 1275.33 C 531.67 1267.84 532.47 1256.81 533.33 1248.33 C 534.19 1239.85 535.44 1229.88 536.00 1221.00 C 536.56 1212.12 538.43 1203.02 539.00 1194.00 C 539.57 1184.98 541.22 1176.03 541.99 1166.99 C 542.76 1157.95 543.76 1148.98 544.99 1139.99 C 546.22 1131.01 546.71 1122.06 548.00 1113.00 C 549.29 1103.94 551.23 1094.51 551.00 1085.00
C 514.40 1096.02 479.69 1113.78 444.00 1128.00
C 436.12 1175.92 427.66 1225.10 427.00 1274.00
C 408.11 1283.08 410.44 1256.77 411.00 1242.00 C 411.56 1227.23 414.25 1207.81 415.00 1192.00 C 415.75 1176.19 418.41 1157.42 418.00 1141.00
C 410.38 1143.30 401.82 1146.87 394.93 1150.93 C 388.03 1154.99 370.45 1155.35 375.92 1145.92 C 381.40 1136.50 387.66 1136.62 395.23 1131.23 C 402.80 1125.84 408.47 1124.43 416.70 1119.70 C 424.92 1114.96 422.28 1102.63 424.33 1093.33 C 426.38 1084.03 426.33 1072.63 428.00 1063.00 C 429.67 1053.37 431.01 1042.80 432.00 1033.00 C 432.99 1023.20 435.68 1014.17 436.33 1004.33 C 436.98 994.49 439.98 985.24 441.78 975.78 C 443.58 966.31 446.98 957.90 458.22 959.78 C 469.46 961.66 464.24 975.64 463.00 985.00 C 461.77 994.36 460.07 1004.27 459.00 1014.00 C 457.93 1023.73 456.31 1034.15 455.01 1044.01 C 453.71 1053.86 452.29 1064.06 451.00 1074.00 C 449.72 1083.94 448.37 1094.04 447.00 1104.00
C 459.19 1101.12 473.39 1097.21 484.68 1091.68 C 495.97 1086.14 511.27 1083.92 521.68 1077.68 C 532.09 1071.43 550.39 1073.01 554.93 1060.93 C 559.46 1048.84 558.41 1030.27 561.93 1016.93 C 565.45 1003.59 565.29 986.09 568.33 972.33 C 571.37 958.57 572.83 943.12 575.33 929.33 C 577.83 915.54 580.20 899.98 583.93 886.93 C 587.65 873.87 588.26 854.05 607.00 861.00
M 1156.00 1112.00 
C 1178.60 1099.41 1193.23 1071.39 1219.00 1065.00
C 1213.34 1074.11 1204.43 1083.13 1196.75 1090.75 C 1189.08 1098.37 1179.86 1108.53 1172.75 1115.75 C 1165.64 1122.97 1148.49 1135.78 1139.75 1125.25 C 1131.01 1114.72 1141.20 1096.07 1141.99 1083.99 C 1142.78 1071.92 1151.36 1056.41 1149.00 1044.00
C 1140.65 1050.06 1135.10 1059.06 1128.25 1066.25 C 1121.39 1073.43 1115.82 1084.06 1108.70 1090.70 C 1101.58 1097.33 1095.96 1110.03 1084.98 1109.98 C 1073.99 1109.93 1067.77 1118.79 1059.25 1126.25 C 1050.74 1133.71 1043.32 1139.81 1032.78 1143.78 C 1022.23 1147.74 1005.98 1148.85 994.99 1145.01 C 984.00 1141.16 977.19 1133.21 974.02 1121.98 C 970.86 1110.74 971.48 1093.76 974.00 1082.00
C 957.03 1094.59 935.87 1097.26 915.00 1098.00
C 911.27 1108.86 903.57 1119.47 898.70 1129.70 C 893.82 1139.92 886.86 1150.55 880.25 1159.25 C 873.63 1167.94 854.98 1176.21 850.23 1162.77 C 845.48 1149.33 850.82 1131.52 851.00 1118.00 C 851.18 1104.48 850.79 1088.07 862.00 1080.00
C 866.91 1103.32 861.80 1129.23 865.00 1153.00
C 875.14 1150.89 875.10 1138.37 880.32 1130.32 C 885.55 1122.28 887.21 1113.24 892.77 1104.77 C 898.33 1096.30 899.45 1084.25 898.00 1074.00 C 896.55 1063.75 901.93 1052.79 906.77 1044.77 C 911.61 1036.75 919.61 1027.14 930.67 1031.33 C 941.73 1035.52 930.97 1050.24 930.07 1058.07 C 929.17 1065.91 918.47 1079.36 926.70 1085.30 C 934.92 1091.25 947.87 1086.32 956.08 1082.08 C 964.28 1077.83 971.14 1072.47 978.25 1066.25 C 985.36 1060.02 987.54 1052.20 995.25 1045.25 C 1002.96 1038.30 1014.64 1036.83 1024.69 1041.31 C 1034.75 1045.78 1036.38 1057.41 1033.02 1067.02 C 1029.67 1076.64 1024.26 1082.11 1018.25 1090.25 C 1012.24 1098.39 1003.90 1100.65 996.92 1106.92 C 989.95 1113.20 999.22 1127.13 1005.75 1132.25 C 1012.28 1137.38 1026.13 1134.61 1033.23 1129.23 C 1040.33 1123.85 1049.86 1120.76 1055.75 1113.75 C 1061.63 1106.74 1072.39 1102.12 1072.00 1092.00 C 1071.61 1081.88 1079.44 1070.36 1077.93 1059.93 C 1076.41 1049.50 1092.10 1039.03 1097.77 1050.23 C 1103.44 1061.43 1091.35 1072.99 1094.00 1084.00
C 1103.00 1078.06 1109.60 1066.67 1116.30 1058.30 C 1123.00 1049.93 1133.56 1041.78 1140.25 1034.25 C 1146.93 1026.72 1168.43 1018.99 1171.92 1032.08 C 1175.41 1045.16 1166.34 1060.29 1165.01 1073.01 C 1163.68 1085.72 1156.22 1098.79 1156.00 1112.00
M 806.00 1075.00 
C 810.12 1065.91 831.47 1057.42 832.00 1072.00 C 832.53 1086.59 830.95 1102.09 830.00 1116.00 C 829.05 1129.91 826.69 1145.56 829.00 1159.00 C 831.31 1172.44 828.06 1185.66 841.00 1193.00
C 813.06 1203.06 812.54 1161.63 810.01 1143.99 C 807.48 1126.36 813.54 1117.97 808.00 1103.00
C 800.00 1114.11 791.74 1124.64 783.75 1135.75 C 775.76 1146.86 766.93 1155.78 756.75 1165.75 C 746.57 1175.73 718.12 1177.86 723.00 1156.00
C 710.72 1167.87 698.88 1178.50 682.98 1183.98 C 667.07 1189.45 642.48 1188.12 632.25 1172.75 C 622.01 1157.39 622.00 1131.77 629.32 1115.32 C 636.64 1098.88 640.54 1084.28 660.22 1078.22 C 679.91 1072.16 695.09 1097.61 683.08 1113.08 C 671.06 1128.54 666.53 1140.17 648.00 1147.00
C 646.24 1157.70 654.06 1174.19 666.01 1174.99 C 677.96 1175.80 688.91 1167.47 698.25 1161.25 C 707.58 1155.02 714.82 1148.02 722.25 1139.25 C 729.68 1130.48 731.62 1117.44 737.31 1107.31 C 742.99 1097.17 747.22 1088.03 754.77 1078.77 C 762.32 1069.51 768.73 1063.43 780.08 1058.08 C 791.42 1052.72 809.73 1058.42 806.00 1075.00 Z"/>
</g>
<g fill="None" fill-opacity="0.0" stroke="#FFFFFF" stroke-opacity="0.96" stroke-width="0.3"><path d="
M 1194.00 490.00 
C 1200.59 463.12 1211.09 434.82 1214.22 407.22 C 1217.35 379.62 1226.15 344.86 1208.25 320.75 C 1190.35 296.64 1155.51 312.15 1141.77 333.77 C 1128.03 355.39 1117.05 378.38 1109.98 403.98 C 1102.91 429.57 1095.52 460.96 1092.00 488.00
C 1082.07 488.13 1072.58 486.17 1063.00 485.00 C 1053.42 483.83 1044.58 483.43 1035.00 482.00 C 1025.42 480.57 1014.89 483.28 1005.67 483.67 C 996.45 484.06 989.46 488.10 981.08 491.08 C 972.70 494.05 970.60 499.93 964.75 505.75 C 958.91 511.57 962.49 526.88 969.75 521.75 C 977.02 516.62 972.37 506.39 981.75 502.75 C 991.14 499.12 995.12 494.99 1004.99 493.99 C 1014.87 492.99 1023.41 492.32 1033.00 493.00 C 1042.59 493.68 1051.90 494.47 1061.33 495.67 C 1070.76 496.87 1080.45 497.35 1090.00 498.00
C 1087.12 516.14 1087.19 535.70 1084.93 553.93 C 1082.67 572.16 1082.98 592.74 1081.98 610.98 C 1080.97 629.22 1081.40 653.69 1081.00 671.00 C 1080.60 688.31 1067.38 696.87 1060.30 710.31 C 1053.23 723.74 1044.32 734.94 1035.75 746.75 C 1027.18 758.56 1018.75 769.03 1007.75 778.75 C 996.75 788.48 985.71 800.98 970.00 802.00 C 954.29 803.02 942.80 789.21 937.99 774.01 C 933.19 758.81 934.91 736.31 936.67 719.67 C 938.44 703.03 958.13 702.06 970.92 693.92 C 983.71 685.78 994.11 679.24 1004.08 667.08 C 1014.06 654.93 1021.06 641.60 1024.00 626.00 C 1026.95 610.40 1022.51 592.82 1009.75 582.25 C 996.99 571.69 975.85 571.77 962.23 579.23 C 948.61 586.69 939.36 594.90 929.92 606.92 C 920.48 618.93 913.27 631.06 906.92 644.92 C 900.58 658.79 894.59 674.06 890.93 688.93 C 887.26 703.80 881.37 720.20 874.92 733.92 C 868.48 747.65 862.29 760.84 854.30 773.30 C 846.32 785.77 839.12 797.21 827.00 806.00
C 816.82 796.60 815.57 783.74 814.00 770.00 C 812.43 756.26 813.33 737.84 815.01 724.01 C 816.68 710.18 818.65 696.16 822.00 683.00 C 825.36 669.85 825.88 655.41 831.07 643.07 C 836.26 630.73 833.88 615.29 823.08 607.92 C 812.28 600.55 796.75 594.92 790.78 607.78 C 784.81 620.63 783.84 633.50 780.98 646.98 C 778.11 660.46 775.25 675.42 774.00 689.00 C 772.75 702.57 771.04 716.94 765.77 728.77 C 760.50 740.60 755.52 751.30 750.32 762.32 C 745.13 773.34 738.76 784.01 732.92 793.92 C 727.08 803.83 719.40 813.68 713.30 822.30 C 707.20 830.92 692.89 846.80 686.32 833.68 C 679.76 820.55 683.77 802.01 683.22 788.22 C 682.67 774.43 688.62 758.67 689.07 746.07 C 689.53 733.48 701.92 717.65 689.70 708.30 C 677.48 698.96 667.83 711.12 655.23 716.23 C 642.63 721.34 635.09 725.08 619.01 728.01 C 602.92 730.94 598.98 714.38 603.01 701.01 C 607.04 687.63 613.38 673.82 609.78 661.22 C 606.17 648.63 597.17 642.13 584.00 639.00 C 570.83 635.87 562.99 653.34 560.93 664.93 C 558.86 676.51 552.70 693.42 555.00 706.00 C 557.31 718.58 560.37 729.34 572.00 737.00
C 570.22 751.77 567.60 769.45 565.98 783.98 C 564.35 798.50 559.09 814.78 557.33 828.33 C 555.57 841.88 547.76 858.17 545.93 869.93 C 544.09 881.68 529.50 901.25 519.92 889.08 C 510.35 876.90 513.81 860.88 511.00 846.00 C 508.19 831.12 510.39 809.80 510.00 794.00 C 509.61 778.20 512.05 759.43 513.07 744.07 C 514.10 728.72 517.60 712.35 520.00 698.00 C 522.41 683.65 524.62 667.45 528.68 654.68 C 532.73 641.90 537.99 622.29 528.77 612.23 C 519.55 602.17 509.11 590.23 495.03 593.03 C 480.94 595.82 481.26 616.57 476.78 627.78 C 472.30 638.99 469.74 658.38 468.00 671.00
C 460.64 658.97 452.32 645.25 437.02 641.98 C 421.73 638.71 404.21 645.04 392.25 654.25 C 380.28 663.45 372.37 672.76 364.77 685.77 C 357.17 698.79 350.54 713.33 347.33 728.33 C 344.12 743.33 345.54 762.86 329.08 769.08 C 312.61 775.29 296.43 775.66 281.08 767.92 C 265.73 760.18 257.13 749.81 262.67 733.67 C 268.21 717.53 267.49 700.35 271.67 683.67 C 275.85 666.99 276.07 649.53 279.22 632.22 C 282.37 614.91 283.28 596.07 285.07 578.07 C 286.87 560.08 287.89 541.36 289.00 523.00 C 290.11 504.64 287.86 483.59 287.00 466.00 C 286.14 448.41 282.16 431.81 276.92 416.08 C 271.68 400.34 256.80 389.85 241.07 395.07 C 225.35 400.30 218.64 410.15 210.92 423.92 C 203.20 437.69 198.81 452.09 194.99 467.99 C 191.17 483.90 188.87 502.52 187.78 519.78 C 186.69 537.04 186.35 560.35 187.00 578.00 C 187.66 595.64 190.72 615.27 193.07 631.93 C 195.43 648.59 200.58 663.78 205.02 678.98 C 209.47 694.17 215.16 707.39 222.23 720.77 C 229.30 734.16 236.13 744.53 247.00 755.00
C 241.48 774.14 238.87 795.18 231.78 813.78 C 224.68 832.38 223.21 849.48 211.25 866.25 C 199.28 883.01 174.75 872.31 164.92 857.08 C 155.08 841.86 145.86 827.22 139.31 809.69 C 132.75 792.17 124.91 773.60 119.93 755.07 C 114.95 736.55 108.22 716.98 103.98 698.02 C 99.73 679.07 93.91 657.86 89.99 639.01 C 86.08 620.16 80.77 596.35 77.78 578.22 C 74.79 560.10 72.56 529.56 51.02 533.02 C 29.49 536.49 15.30 552.61 18.22 572.78 C 21.14 592.95 28.09 612.27 32.01 631.99 C 35.93 651.72 41.87 671.14 46.67 690.33 C 51.48 709.51 57.65 729.21 63.22 747.78 C 68.80 766.34 75.48 784.23 82.07 801.93 C 88.67 819.62 96.12 835.82 104.69 852.31 C 113.27 868.79 121.83 881.47 134.75 895.25 C 147.67 909.03 168.64 919.73 187.32 913.32 C 206.00 906.91 213.07 890.86 221.22 874.22 C 229.38 857.59 234.53 838.53 240.68 820.68 C 246.83 802.82 250.52 781.54 257.00 764.00
C 279.07 784.80 316.02 792.83 342.00 774.00
C 340.78 801.13 345.09 829.11 362.25 849.75 C 379.41 870.39 410.51 867.99 427.25 849.25 C 443.99 830.51 454.19 809.69 460.00 786.00
C 463.33 809.09 462.90 840.90 470.22 862.78 C 477.55 884.65 480.84 904.91 502.93 917.07 C 525.01 929.24 545.13 905.91 552.23 885.23 C 559.32 864.55 567.74 840.38 571.22 817.22 C 574.70 794.06 580.54 765.94 583.00 742.00
C 602.39 746.32 623.59 743.75 642.00 738.00
C 637.74 773.56 621.55 816.33 642.25 850.75 C 662.94 885.18 704.86 853.76 721.25 829.25 C 737.64 804.73 759.88 776.05 769.00 747.00
C 773.28 769.87 769.52 801.29 789.75 818.25 C 809.99 835.20 835.36 816.83 848.75 799.75 C 862.14 782.68 874.56 762.40 882.00 742.00
C 885.12 761.42 890.70 782.81 905.25 797.75 C 919.81 812.68 943.96 820.61 963.93 815.93 C 983.89 811.25 999.34 800.31 1014.25 787.25 C 1029.16 774.18 1038.55 759.40 1050.25 744.25 C 1061.95 729.09 1071.23 712.50 1082.00 697.00
C 1080.21 730.63 1086.70 768.87 1094.68 799.32 C 1102.65 829.77 1141.46 845.69 1165.92 827.92 C 1190.38 810.14 1199.69 785.41 1214.23 761.23 C 1228.77 737.05 1238.49 708.35 1250.00 683.00
C 1248.52 719.18 1294.51 749.59 1322.75 725.75 C 1351.00 701.92 1359.53 671.32 1369.00 638.00
C 1370.63 649.88 1370.27 665.45 1370.00 678.00 C 1369.73 690.55 1368.12 703.73 1368.00 716.00 C 1367.88 728.27 1366.22 742.45 1366.00 754.00 C 1365.78 765.55 1353.96 767.91 1347.25 775.25 C 1340.53 782.59 1332.84 787.16 1325.75 793.75 C 1318.67 800.34 1311.96 806.28 1304.75 812.75 C 1297.55 819.22 1290.85 825.79 1283.75 832.75 C 1276.66 839.72 1270.76 846.17 1264.25 853.25 C 1257.73 860.32 1251.65 867.19 1245.75 874.75 C 1239.85 882.32 1233.57 889.12 1228.30 897.30 C 1223.04 905.49 1217.93 913.41 1213.31 922.31 C 1208.68 931.20 1204.25 940.01 1200.78 949.78 C 1197.30 959.54 1194.02 970.63 1192.33 981.33 C 1190.64 992.03 1189.90 1008.66 1193.08 1018.92 C 1196.25 1029.19 1200.60 1036.34 1208.25 1043.75 C 1215.90 1051.17 1222.10 1055.84 1231.93 1060.07 C 1241.75 1064.31 1252.90 1066.63 1264.00 1068.00 C 1275.10 1069.37 1289.97 1066.81 1299.99 1063.99 C 1310.01 1061.17 1320.16 1058.47 1328.25 1052.25 C 1336.35 1046.03 1343.07 1040.42 1349.70 1032.70 C 1356.32 1024.98 1361.01 1017.85 1366.23 1009.23 C 1371.45 1000.61 1375.83 992.27 1379.68 982.68 C 1383.53 973.08 1386.76 962.98 1389.68 952.68 C 1392.60 942.37 1395.66 931.86 1398.00 921.00 C 1400.35 910.14 1401.95 898.28 1404.02 887.02 C 1406.10 875.76 1408.01 863.99 1409.22 852.22 C 1410.43 840.45 1413.22 828.04 1414.00 816.00 C 1414.78 803.96 1416.83 791.10 1417.00 779.00 C 1417.18 766.90 1421.05 754.01 1420.00 742.00 C 1418.95 729.99 1425.51 722.84 1434.25 716.25 C 1443.00 709.67 1447.71 704.52 1455.25 697.25 C 1462.79 689.97 1468.77 685.80 1475.75 677.75 C 1482.73 669.70 1488.71 665.42 1495.25 656.25 C 1501.79 647.07 1506.11 644.98 1512.23 633.23 C 1518.35 621.48 1503.83 621.46 1499.75 632.75 C 1495.68 644.05 1487.49 646.12 1481.92 654.92 C 1476.35 663.72 1469.33 668.28 1462.75 675.75 C 1456.17 683.22 1449.16 688.54 1442.23 695.23 C 1435.30 701.92 1427.86 707.13 1421.00 714.00
C 1421.23 702.57 1422.80 691.42 1423.00 680.00 C 1423.21 668.58 1423.63 657.38 1424.00 646.00 C 1424.37 634.62 1423.96 622.14 1425.00 611.00 C 1426.04 599.86 1424.37 586.97 1425.00 576.00 C 1425.63 565.03 1425.14 552.78 1422.99 543.01 C 1420.84 533.23 1417.45 526.15 1411.25 518.75 C 1405.05 511.35 1396.89 507.31 1388.00 509.00 C 1379.12 510.70 1370.63 516.70 1370.00 527.00 C 1369.37 537.30 1371.47 550.30 1371.00 561.00 C 1370.53 571.70 1371.05 583.94 1368.98 593.98 C 1366.90 604.01 1365.34 614.41 1362.93 623.93 C 1360.51 633.44 1357.86 642.07 1354.98 650.98 C 1352.09 659.88 1348.75 668.78 1344.92 676.92 C 1341.10 685.07 1338.04 692.53 1330.25 697.25 C 1322.45 701.96 1311.97 704.11 1305.75 696.25 C 1299.53 688.39 1298.37 678.13 1298.00 668.00 C 1297.63 657.87 1298.47 644.78 1300.01 635.01 C 1301.55 625.24 1302.82 613.42 1305.22 604.22 C 1307.62 595.02 1307.56 584.23 1300.25 577.75 C 1292.93 571.28 1284.72 567.85 1275.01 568.01 C 1265.30 568.17 1259.27 577.78 1257.78 586.78 C 1256.29 595.78 1251.98 605.26 1251.00 615.00 C 1250.02 624.74 1247.37 637.78 1248.00 648.00 C 1248.63 658.22 1244.65 667.29 1240.93 675.93 C 1237.20 684.57 1234.32 692.36 1230.78 700.78 C 1227.23 709.19 1223.38 717.54 1219.77 725.77 C 1216.17 734.00 1212.16 741.35 1208.31 749.31 C 1204.45 757.26 1200.52 764.45 1195.92 771.92 C 1191.33 779.40 1187.60 787.19 1182.25 794.25 C 1176.89 801.31 1172.93 807.67 1164.07 811.07 C 1155.21 814.48 1144.80 808.76 1140.77 800.23 C 1136.74 791.70 1132.80 784.66 1131.00 775.00 C 1129.20 765.34 1127.06 755.29 1126.00 745.00 C 1124.94 734.71 1124.13 721.66 1124.00 711.00 C 1123.87 700.34 1121.86 687.58 1123.00 677.00 C 1124.14 666.42 1122.21 651.75 1124.08 642.08 C 1125.96 632.41 1134.55 629.25 1137.70 620.70 C 1140.84 612.14 1146.12 606.14 1150.08 598.08 C 1154.03 590.01 1157.67 581.73 1161.69 573.69 C 1165.72 565.66 1168.09 557.13 1172.08 549.08 C 1176.06 541.02 1178.03 531.00 1182.07 523.07 C 1186.12 515.15 1185.01 502.04 1194.99 500.99 C 1204.98 499.94 1216.70 499.12 1227.00 498.00 C 1237.30 496.87 1247.73 494.83 1257.98 492.98 C 1268.23 491.12 1275.54 488.48 1285.98 485.98 C 1296.41 483.47 1300.68 479.37 1311.92 475.92 C 1323.17 472.47 1321.30 459.78 1310.08 465.08 C 1298.85 470.37 1295.22 471.09 1285.02 475.02 C 1274.83 478.96 1266.52 480.02 1256.22 482.22 C 1245.92 484.42 1236.87 486.36 1226.22 487.22 C 1215.58 488.09 1204.88 489.81 1194.00 490.00
M 1182.00 490.00 
C 1167.69 491.74 1152.68 490.75 1138.00 491.00
C 1139.34 474.99 1143.18 456.33 1145.99 440.99 C 1148.81 425.65 1154.66 409.60 1158.32 395.32 C 1161.98 381.05 1170.49 366.40 1176.25 354.25 C 1182.02 342.11 1201.05 325.08 1205.99 342.01 C 1210.93 358.93 1207.62 379.98 1205.67 396.67 C 1203.72 413.36 1199.26 428.72 1195.67 444.67 C 1192.09 460.62 1186.74 474.51 1182.00 490.00
M 256.00 405.00 
C 280.85 432.87 277.45 471.32 278.00 509.00 C 278.55 546.68 274.02 589.55 269.22 626.22 C 264.42 662.89 259.45 698.82 251.00 734.00
C 238.03 709.54 231.43 686.76 226.07 658.93 C 220.72 631.10 217.53 596.37 217.00 567.00 C 216.47 537.63 218.63 501.14 223.99 473.99 C 229.36 446.84 232.44 420.40 256.00 405.00
M 1179.00 501.00 
C 1163.80 541.59 1148.50 583.31 1125.00 620.00
C 1127.19 579.97 1131.22 540.40 1136.00 501.00
C 1150.33 501.00 1164.67 501.00 1179.00 501.00
M 942.00 695.00 
C 945.80 681.42 951.93 665.67 956.78 652.78 C 961.62 639.88 969.60 625.51 976.92 614.92 C 984.24 604.32 1001.40 588.67 1010.77 601.23 C 1020.14 613.79 1012.44 631.45 1006.70 643.70 C 1000.95 655.94 990.52 666.07 979.77 674.77 C 969.02 683.47 955.23 690.97 942.00 695.00
M 441.00 663.00 
C 454.18 663.68 462.26 681.53 462.98 694.02 C 463.69 706.52 463.00 730.26 461.00 744.00 C 459.01 757.75 453.02 772.80 449.07 786.07 C 445.12 799.35 439.79 811.73 432.70 823.70 C 425.60 835.66 406.70 839.92 400.08 825.92 C 393.46 811.92 393.70 793.60 394.00 778.00 C 394.30 762.40 396.09 742.49 398.33 728.33 C 400.57 714.17 405.32 698.81 411.77 687.77 C 418.22 676.73 427.41 662.30 441.00 663.00
M 1364.00 776.00 
C 1362.29 816.37 1356.13 867.64 1349.67 905.67 C 1343.21 943.70 1334.42 983.02 1312.25 1012.25 C 1290.08 1041.47 1243.54 1061.82 1214.75 1034.25 C 1185.96 1006.67 1208.41 953.94 1223.92 924.92 C 1239.43 895.90 1263.40 868.57 1287.25 844.25 C 1311.09 819.93 1338.01 797.19 1364.00 776.00 Z"/>
</g>
<g fill="None" fill-opacity="0.0" stroke="#000000" stroke-opacity="0.00" stroke-width="0.3"><path d="
M 1182.00 490.00 
C 1186.74 474.51 1192.09 460.62 1195.67 444.67 C 1199.26 428.72 1203.72 413.36 1205.67 396.67 C 1207.62 379.98 1210.93 358.93 1205.99 342.01 C 1201.05 325.08 1182.02 342.11 1176.25 354.25 C 1170.49 366.40 1161.98 381.05 1158.32 395.32 C 1154.66 409.60 1148.81 425.65 1145.99 440.99 C 1143.18 456.33 1139.34 474.99 1138.00 491.00
C 1152.68 490.75 1167.69 491.74 1182.00 490.00 Z"/>
</g>
<g fill="None" fill-opacity="0.0" stroke="#000000" stroke-opacity="0.00" stroke-width="0.3"><path d="
M 256.00 405.00 
C 232.44 420.40 229.36 446.84 223.99 473.99 C 218.63 501.14 216.47 537.63 217.00 567.00 C 217.53 596.37 220.72 631.10 226.07 658.93 C 231.43 686.76 238.03 709.54 251.00 734.00
C 259.45 698.82 264.42 662.89 269.22 626.22 C 274.02 589.55 278.55 546.68 278.00 509.00 C 277.45 471.32 280.85 432.87 256.00 405.00 Z"/>
</g>
<g fill="None" fill-opacity="0.0" stroke="#000000" stroke-opacity="0.00" stroke-width="0.3"><path d="
M 1179.00 501.00 
C 1164.67 501.00 1150.33 501.00 1136.00 501.00
C 1131.22 540.40 1127.19 579.97 1125.00 620.00
C 1148.50 583.31 1163.80 541.59 1179.00 501.00 Z"/>
</g>
<g fill="None" fill-opacity="0.0" stroke="#FFFFFF" stroke-opacity="0.97" stroke-width="0.3"><path d="
M 841.00 506.00 
C 816.15 500.85 818.04 527.67 810.32 543.32 C 802.61 558.98 808.31 580.63 830.00 583.00 C 851.69 585.37 855.24 563.57 862.67 547.67 C 870.11 531.78 858.51 509.63 841.00 506.00 Z"/>
</g>
<g fill="None" fill-opacity="0.0" stroke="#000000" stroke-opacity="0.00" stroke-width="0.3"><path d="
M 942.00 695.00 
C 955.23 690.97 969.02 683.47 979.77 674.77 C 990.52 666.07 1000.95 655.94 1006.70 643.70 C 1012.44 631.45 1020.14 613.79 1010.77 601.23 C 1001.40 588.67 984.24 604.32 976.92 614.92 C 969.60 625.51 961.62 639.88 956.78 652.78 C 951.93 665.67 945.80 681.42 942.00 695.00 Z"/>
</g>
<g fill="None" fill-opacity="0.0" stroke="#000000" stroke-opacity="0.00" stroke-width="0.3"><path d="
M 441.00 663.00 
C 427.41 662.30 418.22 676.73 411.77 687.77 C 405.32 698.81 400.57 714.17 398.33 728.33 C 396.09 742.49 394.30 762.40 394.00 778.00 C 393.70 793.60 393.46 811.92 400.08 825.92 C 406.70 839.92 425.60 835.66 432.70 823.70 C 439.79 811.73 445.12 799.35 449.07 786.07 C 453.02 772.80 459.01 757.75 461.00 744.00 C 463.00 730.26 463.69 706.52 462.98 694.02 C 462.26 681.53 454.18 663.68 441.00 663.00 Z"/>
</g>
<g fill="None" fill-opacity="0.0" stroke="#000000" stroke-opacity="0.00" stroke-width="0.3"><path d="
M 1364.00 776.00 
C 1338.01 797.19 1311.09 819.93 1287.25 844.25 C 1263.40 868.57 1239.43 895.90 1223.92 924.92 C 1208.41 953.94 1185.96 1006.67 1214.75 1034.25 C 1243.54 1061.82 1290.08 1041.47 1312.25 1012.25 C 1334.42 983.02 1343.21 943.70 1349.67 905.67 C 1356.13 867.64 1362.29 816.37 1364.00 776.00 Z"/>
</g>
<g fill="None" fill-opacity="0.0" stroke="#38B6FF" stroke-opacity="0.95" stroke-width="0.3"><path d="
M 607.00 861.00 
C 588.26 854.05 587.65 873.87 583.93 886.93 C 580.20 899.98 577.83 915.54 575.33 929.33 C 572.83 943.12 571.37 958.57 568.33 972.33 C 565.29 986.09 565.45 1003.59 561.93 1016.93 C 558.41 1030.27 559.46 1048.84 554.93 1060.93 C 550.39 1073.01 532.09 1071.43 521.68 1077.68 C 511.27 1083.92 495.97 1086.14 484.68 1091.68 C 473.39 1097.21 459.19 1101.12 447.00 1104.00
C 448.37 1094.04 449.72 1083.94 451.00 1074.00 C 452.29 1064.06 453.71 1053.86 455.01 1044.01 C 456.31 1034.15 457.93 1023.73 459.00 1014.00 C 460.07 1004.27 461.77 994.36 463.00 985.00 C 464.24 975.64 469.46 961.66 458.22 959.78 C 446.98 957.90 443.58 966.31 441.78 975.78 C 439.98 985.24 436.98 994.49 436.33 1004.33 C 435.68 1014.17 432.99 1023.20 432.00 1033.00 C 431.01 1042.80 429.67 1053.37 428.00 1063.00 C 426.33 1072.63 426.38 1084.03 424.33 1093.33 C 422.28 1102.63 424.92 1114.96 416.70 1119.70 C 408.47 1124.43 402.80 1125.84 395.23 1131.23 C 387.66 1136.62 381.40 1136.50 375.92 1145.92 C 370.45 1155.35 388.03 1154.99 394.93 1150.93 C 401.82 1146.87 410.38 1143.30 418.00 1141.00
C 418.41 1157.42 415.75 1176.19 415.00 1192.00 C 414.25 1207.81 411.56 1227.23 411.00 1242.00 C 410.44 1256.77 408.11 1283.08 427.00 1274.00
C 427.66 1225.10 436.12 1175.92 444.00 1128.00
C 479.69 1113.78 514.40 1096.02 551.00 1085.00
C 551.23 1094.51 549.29 1103.94 548.00 1113.00 C 546.71 1122.06 546.22 1131.01 544.99 1139.99 C 543.76 1148.98 542.76 1157.95 541.99 1166.99 C 541.22 1176.03 539.57 1184.98 539.00 1194.00 C 538.43 1203.02 536.56 1212.12 536.00 1221.00 C 535.44 1229.88 534.19 1239.85 533.33 1248.33 C 532.47 1256.81 531.67 1267.84 531.67 1275.33 C 531.67 1282.82 530.66 1300.02 539.99 1297.99 C 549.32 1295.96 543.45 1281.75 546.22 1274.22 C 549.00 1266.69 548.22 1256.28 550.00 1248.00 C 551.78 1239.72 551.83 1229.81 553.22 1221.22 C 554.61 1212.63 556.23 1203.85 557.01 1195.01 C 557.79 1186.17 560.15 1177.87 561.00 1169.00 C 561.85 1160.13 563.53 1151.52 564.67 1142.67 C 565.81 1133.83 567.51 1124.49 568.67 1115.67 C 569.83 1106.85 571.71 1098.76 573.00 1090.00 C 574.30 1081.25 574.49 1073.33 583.98 1070.98 C 593.46 1068.62 597.28 1066.67 606.31 1063.31 C 615.33 1059.94 621.71 1061.76 631.93 1060.93 C 642.14 1060.09 637.96 1048.22 629.02 1047.98 C 620.09 1047.73 612.24 1048.33 603.67 1050.67 C 595.10 1053.01 587.34 1053.37 579.00 1056.00
C 586.00 990.40 601.04 926.84 607.00 861.00 Z"/>
</g>
<g fill="None" fill-opacity="0.0" stroke="#38B5FF" stroke-opacity="0.94" stroke-width="0.3"><path d="
M 1156.00 1112.00 
C 1156.22 1098.79 1163.68 1085.72 1165.01 1073.01 C 1166.34 1060.29 1175.41 1045.16 1171.92 1032.08 C 1168.43 1018.99 1146.93 1026.72 1140.25 1034.25 C 1133.56 1041.78 1123.00 1049.93 1116.30 1058.30 C 1109.60 1066.67 1103.00 1078.06 1094.00 1084.00
C 1091.35 1072.99 1103.44 1061.43 1097.77 1050.23 C 1092.10 1039.03 1076.41 1049.50 1077.93 1059.93 C 1079.44 1070.36 1071.61 1081.88 1072.00 1092.00 C 1072.39 1102.12 1061.63 1106.74 1055.75 1113.75 C 1049.86 1120.76 1040.33 1123.85 1033.23 1129.23 C 1026.13 1134.61 1012.28 1137.38 1005.75 1132.25 C 999.22 1127.13 989.95 1113.20 996.92 1106.92 C 1003.90 1100.65 1012.24 1098.39 1018.25 1090.25 C 1024.26 1082.11 1029.67 1076.64 1033.02 1067.02 C 1036.38 1057.41 1034.75 1045.78 1024.69 1041.31 C 1014.64 1036.83 1002.96 1038.30 995.25 1045.25 C 987.54 1052.20 985.36 1060.02 978.25 1066.25 C 971.14 1072.47 964.28 1077.83 956.08 1082.08 C 947.87 1086.32 934.92 1091.25 926.70 1085.30 C 918.47 1079.36 929.17 1065.91 930.07 1058.07 C 930.97 1050.24 941.73 1035.52 930.67 1031.33 C 919.61 1027.14 911.61 1036.75 906.77 1044.77 C 901.93 1052.79 896.55 1063.75 898.00 1074.00 C 899.45 1084.25 898.33 1096.30 892.77 1104.77 C 887.21 1113.24 885.55 1122.28 880.32 1130.32 C 875.10 1138.37 875.14 1150.89 865.00 1153.00
C 861.80 1129.23 866.91 1103.32 862.00 1080.00
C 850.79 1088.07 851.18 1104.48 851.00 1118.00 C 850.82 1131.52 845.48 1149.33 850.23 1162.77 C 854.98 1176.21 873.63 1167.94 880.25 1159.25 C 886.86 1150.55 893.82 1139.92 898.70 1129.70 C 903.57 1119.47 911.27 1108.86 915.00 1098.00
C 935.87 1097.26 957.03 1094.59 974.00 1082.00
C 971.48 1093.76 970.86 1110.74 974.02 1121.98 C 977.19 1133.21 984.00 1141.16 994.99 1145.01 C 1005.98 1148.85 1022.23 1147.74 1032.78 1143.78 C 1043.32 1139.81 1050.74 1133.71 1059.25 1126.25 C 1067.77 1118.79 1073.99 1109.93 1084.98 1109.98 C 1095.96 1110.03 1101.58 1097.33 1108.70 1090.70 C 1115.82 1084.06 1121.39 1073.43 1128.25 1066.25 C 1135.10 1059.06 1140.65 1050.06 1149.00 1044.00
C 1151.36 1056.41 1142.78 1071.92 1141.99 1083.99 C 1141.20 1096.07 1131.01 1114.72 1139.75 1125.25 C 1148.49 1135.78 1165.64 1122.97 1172.75 1115.75 C 1179.86 1108.53 1189.08 1098.37 1196.75 1090.75 C 1204.43 1083.13 1213.34 1074.11 1219.00 1065.00
C 1193.23 1071.39 1178.60 1099.41 1156.00 1112.00
M 1012.00 1054.00 
C 1015.30 1067.17 1006.16 1080.22 997.00 1089.00
C 996.55 1075.70 1001.61 1062.47 1012.00 1054.00 Z"/>
</g>
<g fill="None" fill-opacity="0.0" stroke="#000000" stroke-opacity="0.00" stroke-width="0.3"><path d="
M 1012.00 1054.00 
C 1001.61 1062.47 996.55 1075.70 997.00 1089.00
C 1006.16 1080.22 1015.30 1067.17 1012.00 1054.00 Z"/>
</g>
<g fill="None" fill-opacity="0.0" stroke="#38B5FF" stroke-opacity="0.95" stroke-width="0.3"><path d="
M 806.00 1075.00 
C 809.73 1058.42 791.42 1052.72 780.08 1058.08 C 768.73 1063.43 762.32 1069.51 754.77 1078.77 C 747.22 1088.03 742.99 1097.17 737.31 1107.31 C 731.62 1117.44 729.68 1130.48 722.25 1139.25 C 714.82 1148.02 707.58 1155.02 698.25 1161.25 C 688.91 1167.47 677.96 1175.80 666.01 1174.99 C 654.06 1174.19 646.24 1157.70 648.00 1147.00
C 666.53 1140.17 671.06 1128.54 683.08 1113.08 C 695.09 1097.61 679.91 1072.16 660.22 1078.22 C 640.54 1084.28 636.64 1098.88 629.32 1115.32 C 622.00 1131.77 622.01 1157.39 632.25 1172.75 C 642.48 1188.12 667.07 1189.45 682.98 1183.98 C 698.88 1178.50 710.72 1167.87 723.00 1156.00
C 718.12 1177.86 746.57 1175.73 756.75 1165.75 C 766.93 1155.78 775.76 1146.86 783.75 1135.75 C 791.74 1124.64 800.00 1114.11 808.00 1103.00
C 813.54 1117.97 807.48 1126.36 810.01 1143.99 C 812.54 1161.63 813.06 1203.06 841.00 1193.00
C 828.06 1185.66 831.31 1172.44 829.00 1159.00 C 826.69 1145.56 829.05 1129.91 830.00 1116.00 C 830.95 1102.09 832.53 1086.59 832.00 1072.00 C 831.47 1057.42 810.12 1065.91 806.00 1075.00
M 786.00 1071.00 
C 789.36 1082.76 793.62 1097.39 786.70 1107.70 C 779.77 1118.00 775.07 1127.94 766.75 1136.75 C 758.43 1145.56 751.93 1155.58 741.00 1160.00
C 744.02 1126.67 760.60 1093.08 786.00 1071.00
M 665.00 1094.00 
C 668.68 1107.81 657.36 1119.47 650.00 1130.00
C 649.00 1117.65 653.80 1102.14 665.00 1094.00 Z"/>
</g>
<g fill="None" fill-opacity="0.0" stroke="#000000" stroke-opacity="0.00" stroke-width="0.3"><path d="
M 786.00 1071.00 
C 760.60 1093.08 744.02 1126.67 741.00 1160.00
C 751.93 1155.58 758.43 1145.56 766.75 1136.75 C 775.07 1127.94 779.77 1118.00 786.70 1107.70 C 793.62 1097.39 789.36 1082.76 786.00 1071.00 Z"/>
</g>
<g fill="None" fill-opacity="0.0" stroke="#000000" stroke-opacity="0.00" stroke-width="0.3"><path d="
M 665.00 1094.00 
C 653.80 1102.14 649.00 1117.65 650.00 1130.00
C 657.36 1119.47 668.68 1107.81 665.00 1094.00 Z"/>
</g>
<g fill="#000000" fill-opacity="0.00" stroke="None">
<path d="
M 0.00 1563.00 
L 1563.00 1563.00
L 1563.00 0.00
L 0.00 0.00
L 0.00 1563.00
M 1194.00 490.00 
C 1204.88 489.81 1215.58 488.09 1226.22 487.22 C 1236.87 486.36 1245.92 484.42 1256.22 482.22 C 1266.52 480.02 1274.83 478.96 1285.02 475.02 C 1295.22 471.09 1298.85 470.37 1310.08 465.08 C 1321.30 459.78 1323.17 472.47 1311.92 475.92 C 1300.68 479.37 1296.41 483.47 1285.98 485.98 C 1275.54 488.48 1268.23 491.12 1257.98 492.98 C 1247.73 494.83 1237.30 496.87 1227.00 498.00 C 1216.70 499.12 1204.98 499.94 1194.99 500.99 C 1185.01 502.04 1186.12 515.15 1182.07 523.07 C 1178.03 531.00 1176.06 541.02 1172.08 549.08 C 1168.09 557.13 1165.72 565.66 1161.69 573.69 C 1157.67 581.73 1154.03 590.01 1150.08 598.08 C 1146.12 606.14 1140.84 612.14 1137.70 620.70 C 1134.55 629.25 1125.96 632.41 1124.08 642.08 C 1122.21 651.75 1124.14 666.42 1123.00 677.00 C 1121.86 687.58 1123.87 700.34 1124.00 711.00 C 1124.13 721.66 1124.94 734.71 1126.00 745.00 C 1127.06 755.29 1129.20 765.34 1131.00 775.00 C 1132.80 784.66 1136.74 791.70 1140.77 800.23 C 1144.80 808.76 1155.21 814.48 1164.07 811.07 C 1172.93 807.67 1176.89 801.31 1182.25 794.25 C 1187.60 787.19 1191.33 779.40 1195.92 771.92 C 1200.52 764.45 1204.45 757.26 1208.31 749.31 C 1212.16 741.35 1216.17 734.00 1219.77 725.77 C 1223.38 717.54 1227.23 709.19 1230.78 700.78 C 1234.32 692.36 1237.20 684.57 1240.93 675.93 C 1244.65 667.29 1248.63 658.22 1248.00 648.00 C 1247.37 637.78 1250.02 624.74 1251.00 615.00 C 1251.98 605.26 1256.29 595.78 1257.78 586.78 C 1259.27 577.78 1265.30 568.17 1275.01 568.01 C 1284.72 567.85 1292.93 571.28 1300.25 577.75 C 1307.56 584.23 1307.62 595.02 1305.22 604.22 C 1302.82 613.42 1301.55 625.24 1300.01 635.01 C 1298.47 644.78 1297.63 657.87 1298.00 668.00 C 1298.37 678.13 1299.53 688.39 1305.75 696.25 C 1311.97 704.11 1322.45 701.96 1330.25 697.25 C 1338.04 692.53 1341.10 685.07 1344.92 676.92 C 1348.75 668.78 1352.09 659.88 1354.98 650.98 C 1357.86 642.07 1360.51 633.44 1362.93 623.93 C 1365.34 614.41 1366.90 604.01 1368.98 593.98 C 1371.05 583.94 1370.53 571.70 1371.00 561.00 C 1371.47 550.30 1369.37 537.30 1370.00 527.00 C 1370.63 516.70 1379.12 510.70 1388.00 509.00 C 1396.89 507.31 1405.05 511.35 1411.25 518.75 C 1417.45 526.15 1420.84 533.23 1422.99 543.01 C 1425.14 552.78 1425.63 565.03 1425.00 576.00 C 1424.37 586.97 1426.04 599.86 1425.00 611.00 C 1423.96 622.14 1424.37 634.62 1424.00 646.00 C 1423.63 657.38 1423.21 668.58 1423.00 680.00 C 1422.80 691.42 1421.23 702.57 1421.00 714.00
C 1427.86 707.13 1435.30 701.92 1442.23 695.23 C 1449.16 688.54 1456.17 683.22 1462.75 675.75 C 1469.33 668.28 1476.35 663.72 1481.92 654.92 C 1487.49 646.12 1495.68 644.05 1499.75 632.75 C 1503.83 621.46 1518.35 621.48 1512.23 633.23 C 1506.11 644.98 1501.79 647.07 1495.25 656.25 C 1488.71 665.42 1482.73 669.70 1475.75 677.75 C 1468.77 685.80 1462.79 689.97 1455.25 697.25 C 1447.71 704.52 1443.00 709.67 1434.25 716.25 C 1425.51 722.84 1418.95 729.99 1420.00 742.00 C 1421.05 754.01 1417.18 766.90 1417.00 779.00 C 1416.83 791.10 1414.78 803.96 1414.00 816.00 C 1413.22 828.04 1410.43 840.45 1409.22 852.22 C 1408.01 863.99 1406.10 875.76 1404.02 887.02 C 1401.95 898.28 1400.35 910.14 1398.00 921.00 C 1395.66 931.86 1392.60 942.37 1389.68 952.68 C 1386.76 962.98 1383.53 973.08 1379.68 982.68 C 1375.83 992.27 1371.45 1000.61 1366.23 1009.23 C 1361.01 1017.85 1356.32 1024.98 1349.70 1032.70 C 1343.07 1040.42 1336.35 1046.03 1328.25 1052.25 C 1320.16 1058.47 1310.01 1061.17 1299.99 1063.99 C 1289.97 1066.81 1275.10 1069.37 1264.00 1068.00 C 1252.90 1066.63 1241.75 1064.31 1231.93 1060.07 C 1222.10 1055.84 1215.90 1051.17 1208.25 1043.75 C 1200.60 1036.34 1196.25 1029.19 1193.08 1018.92 C 1189.90 1008.66 1190.64 992.03 1192.33 981.33 C 1194.02 970.63 1197.30 959.54 1200.78 949.78 C 1204.25 940.01 1208.68 931.20 1213.31 922.31 C 1217.93 913.41 1223.04 905.49 1228.30 897.30 C 1233.57 889.12 1239.85 882.32 1245.75 874.75 C 1251.65 867.19 1257.73 860.32 1264.25 853.25 C 1270.76 846.17 1276.66 839.72 1283.75 832.75 C 1290.85 825.79 1297.55 819.22 1304.75 812.75 C 1311.96 806.28 1318.67 800.34 1325.75 793.75 C 1332.84 787.16 1340.53 782.59 1347.25 775.25 C 1353.96 767.91 1365.78 765.55 1366.00 754.00 C 1366.22 742.45 1367.88 728.27 1368.00 716.00 C 1368.12 703.73 1369.73 690.55 1370.00 678.00 C 1370.27 665.45 1370.63 649.88 1369.00 638.00
C 1359.53 671.32 1351.00 701.92 1322.75 725.75 C 1294.51 749.59 1248.52 719.18 1250.00 683.00
C 1238.49 708.35 1228.77 737.05 1214.23 761.23 C 1199.69 785.41 1190.38 810.14 1165.92 827.92 C 1141.46 845.69 1102.65 829.77 1094.68 799.32 C 1086.70 768.87 1080.21 730.63 1082.00 697.00
C 1071.23 712.50 1061.95 729.09 1050.25 744.25 C 1038.55 759.40 1029.16 774.18 1014.25 787.25 C 999.34 800.31 983.89 811.25 963.93 815.93 C 943.96 820.61 919.81 812.68 905.25 797.75 C 890.70 782.81 885.12 761.42 882.00 742.00
C 874.56 762.40 862.14 782.68 848.75 799.75 C 835.36 816.83 809.99 835.20 789.75 818.25 C 769.52 801.29 773.28 769.87 769.00 747.00
C 759.88 776.05 737.64 804.73 721.25 829.25 C 704.86 853.76 662.94 885.18 642.25 850.75 C 621.55 816.33 637.74 773.56 642.00 738.00
C 623.59 743.75 602.39 746.32 583.00 742.00
C 580.54 765.94 574.70 794.06 571.22 817.22 C 567.74 840.38 559.32 864.55 552.23 885.23 C 545.13 905.91 525.01 929.24 502.93 917.07 C 480.84 904.91 477.55 884.65 470.22 862.78 C 462.90 840.90 463.33 809.09 460.00 786.00
C 454.19 809.69 443.99 830.51 427.25 849.25 C 410.51 867.99 379.41 870.39 362.25 849.75 C 345.09 829.11 340.78 801.13 342.00 774.00
C 316.02 792.83 279.07 784.80 257.00 764.00
C 250.52 781.54 246.83 802.82 240.68 820.68 C 234.53 838.53 229.38 857.59 221.22 874.22 C 213.07 890.86 206.00 906.91 187.32 913.32 C 168.64 919.73 147.67 909.03 134.75 895.25 C 121.83 881.47 113.27 868.79 104.69 852.31 C 96.12 835.82 88.67 819.62 82.07 801.93 C 75.48 784.23 68.80 766.34 63.22 747.78 C 57.65 729.21 51.48 709.51 46.67 690.33 C 41.87 671.14 35.93 651.72 32.01 631.99 C 28.09 612.27 21.14 592.95 18.22 572.78 C 15.30 552.61 29.49 536.49 51.02 533.02 C 72.56 529.56 74.79 560.10 77.78 578.22 C 80.77 596.35 86.08 620.16 89.99 639.01 C 93.91 657.86 99.73 679.07 103.98 698.02 C 108.22 716.98 114.95 736.55 119.93 755.07 C 124.91 773.60 132.75 792.17 139.31 809.69 C 145.86 827.22 155.08 841.86 164.92 857.08 C 174.75 872.31 199.28 883.01 211.25 866.25 C 223.21 849.48 224.68 832.38 231.78 813.78 C 238.87 795.18 241.48 774.14 247.00 755.00
C 236.13 744.53 229.30 734.16 222.23 720.77 C 215.16 707.39 209.47 694.17 205.02 678.98 C 200.58 663.78 195.43 648.59 193.07 631.93 C 190.72 615.27 187.66 595.64 187.00 578.00 C 186.35 560.35 186.69 537.04 187.78 519.78 C 188.87 502.52 191.17 483.90 194.99 467.99 C 198.81 452.09 203.20 437.69 210.92 423.92 C 218.64 410.15 225.35 400.30 241.07 395.07 C 256.80 389.85 271.68 400.34 276.92 416.08 C 282.16 431.81 286.14 448.41 287.00 466.00 C 287.86 483.59 290.11 504.64 289.00 523.00 C 287.89 541.36 286.87 560.08 285.07 578.07 C 283.28 596.07 282.37 614.91 279.22 632.22 C 276.07 649.53 275.85 666.99 271.67 683.67 C 267.49 700.35 268.21 717.53 262.67 733.67 C 257.13 749.81 265.73 760.18 281.08 767.92 C 296.43 775.66 312.61 775.29 329.08 769.08 C 345.54 762.86 344.12 743.33 347.33 728.33 C 350.54 713.33 357.17 698.79 364.77 685.77 C 372.37 672.76 380.28 663.45 392.25 654.25 C 404.21 645.04 421.73 638.71 437.02 641.98 C 452.32 645.25 460.64 658.97 468.00 671.00
C 469.74 658.38 472.30 638.99 476.78 627.78 C 481.26 616.57 480.94 595.82 495.03 593.03 C 509.11 590.23 519.55 602.17 528.77 612.23 C 537.99 622.29 532.73 641.90 528.68 654.68 C 524.62 667.45 522.41 683.65 520.00 698.00 C 517.60 712.35 514.10 728.72 513.07 744.07 C 512.05 759.43 509.61 778.20 510.00 794.00 C 510.39 809.80 508.19 831.12 511.00 846.00 C 513.81 860.88 510.35 876.90 519.92 889.08 C 529.50 901.25 544.09 881.68 545.93 869.93 C 547.76 858.17 555.57 841.88 557.33 828.33 C 559.09 814.78 564.35 798.50 565.98 783.98 C 567.60 769.45 570.22 751.77 572.00 737.00
C 560.37 729.34 557.31 718.58 555.00 706.00 C 552.70 693.42 558.86 676.51 560.93 664.93 C 562.99 653.34 570.83 635.87 584.00 639.00 C 597.17 642.13 606.17 648.63 609.78 661.22 C 613.38 673.82 607.04 687.63 603.01 701.01 C 598.98 714.38 602.92 730.94 619.01 728.01 C 635.09 725.08 642.63 721.34 655.23 716.23 C 667.83 711.12 677.48 698.96 689.70 708.30 C 701.92 717.65 689.53 733.48 689.07 746.07 C 688.62 758.67 682.67 774.43 683.22 788.22 C 683.77 802.01 679.76 820.55 686.32 833.68 C 692.89 846.80 707.20 830.92 713.30 822.30 C 719.40 813.68 727.08 803.83 732.92 793.92 C 738.76 784.01 745.13 773.34 750.32 762.32 C 755.52 751.30 760.50 740.60 765.77 728.77 C 771.04 716.94 772.75 702.57 774.00 689.00 C 775.25 675.42 778.11 660.46 780.98 646.98 C 783.84 633.50 784.81 620.63 790.78 607.78 C 796.75 594.92 812.28 600.55 823.08 607.92 C 833.88 615.29 836.26 630.73 831.07 643.07 C 825.88 655.41 825.36 669.85 822.00 683.00 C 818.65 696.16 816.68 710.18 815.01 724.01 C 813.33 737.84 812.43 756.26 814.00 770.00 C 815.57 783.74 816.82 796.60 827.00 806.00
C 839.12 797.21 846.32 785.77 854.30 773.30 C 862.29 760.84 868.48 747.65 874.92 733.92 C 881.37 720.20 887.26 703.80 890.93 688.93 C 894.59 674.06 900.58 658.79 906.92 644.92 C 913.27 631.06 920.48 618.93 929.92 606.92 C 939.36 594.90 948.61 586.69 962.23 579.23 C 975.85 571.77 996.99 571.69 1009.75 582.25 C 1022.51 592.82 1026.95 610.40 1024.00 626.00 C 1021.06 641.60 1014.06 654.93 1004.08 667.08 C 994.11 679.24 983.71 685.78 970.92 693.92 C 958.13 702.06 938.44 703.03 936.67 719.67 C 934.91 736.31 933.19 758.81 937.99 774.01 C 942.80 789.21 954.29 803.02 970.00 802.00 C 985.71 800.98 996.75 788.48 1007.75 778.75 C 1018.75 769.03 1027.18 758.56 1035.75 746.75 C 1044.32 734.94 1053.23 723.74 1060.30 710.31 C 1067.38 696.87 1080.60 688.31 1081.00 671.00 C 1081.40 653.69 1080.97 629.22 1081.98 610.98 C 1082.98 592.74 1082.67 572.16 1084.93 553.93 C 1087.19 535.70 1087.12 516.14 1090.00 498.00
C 1080.45 497.35 1070.76 496.87 1061.33 495.67 C 1051.90 494.47 1042.59 493.68 1033.00 493.00 C 1023.41 492.32 1014.87 492.99 1004.99 493.99 C 995.12 494.99 991.14 499.12 981.75 502.75 C 972.37 506.39 977.02 516.62 969.75 521.75 C 962.49 526.88 958.91 511.57 964.75 505.75 C 970.60 499.93 972.70 494.05 981.08 491.08 C 989.46 488.10 996.45 484.06 1005.67 483.67 C 1014.89 483.28 1025.42 480.57 1035.00 482.00 C 1044.58 483.43 1053.42 483.83 1063.00 485.00 C 1072.58 486.17 1082.07 488.13 1092.00 488.00
C 1095.52 460.96 1102.91 429.57 1109.98 403.98 C 1117.05 378.38 1128.03 355.39 1141.77 333.77 C 1155.51 312.15 1190.35 296.64 1208.25 320.75 C 1226.15 344.86 1217.35 379.62 1214.22 407.22 C 1211.09 434.82 1200.59 463.12 1194.00 490.00
M 841.00 506.00 
C 858.51 509.63 870.11 531.78 862.67 547.67 C 855.24 563.57 851.69 585.37 830.00 583.00 C 808.31 580.63 802.61 558.98 810.32 543.32 C 818.04 527.67 816.15 500.85 841.00 506.00
M 607.00 861.00 
C 601.04 926.84 586.00 990.40 579.00 1056.00
C 587.34 1053.37 595.10 1053.01 603.67 1050.67 C 612.24 1048.33 620.09 1047.73 629.02 1047.98 C 637.96 1048.22 642.14 1060.09 631.93 1060.93 C 621.71 1061.76 615.33 1059.94 606.31 1063.31 C 597.28 1066.67 593.46 1068.62 583.98 1070.98 C 574.49 1073.33 574.30 1081.25 573.00 1090.00 C 571.71 1098.76 569.83 1106.85 568.67 1115.67 C 567.51 1124.49 565.81 1133.83 564.67 1142.67 C 563.53 1151.52 561.85 1160.13 561.00 1169.00 C 560.15 1177.87 557.79 1186.17 557.01 1195.01 C 556.23 1203.85 554.61 1212.63 553.22 1221.22 C 551.83 1229.81 551.78 1239.72 550.00 1248.00 C 548.22 1256.28 549.00 1266.69 546.22 1274.22 C 543.45 1281.75 549.32 1295.96 539.99 1297.99 C 530.66 1300.02 531.67 1282.82 531.67 1275.33 C 531.67 1267.84 532.47 1256.81 533.33 1248.33 C 534.19 1239.85 535.44 1229.88 536.00 1221.00 C 536.56 1212.12 538.43 1203.02 539.00 1194.00 C 539.57 1184.98 541.22 1176.03 541.99 1166.99 C 542.76 1157.95 543.76 1148.98 544.99 1139.99 C 546.22 1131.01 546.71 1122.06 548.00 1113.00 C 549.29 1103.94 551.23 1094.51 551.00 1085.00
C 514.40 1096.02 479.69 1113.78 444.00 1128.00
C 436.12 1175.92 427.66 1225.10 427.00 1274.00
C 408.11 1283.08 410.44 1256.77 411.00 1242.00 C 411.56 1227.23 414.25 1207.81 415.00 1192.00 C 415.75 1176.19 418.41 1157.42 418.00 1141.00
C 410.38 1143.30 401.82 1146.87 394.93 1150.93 C 388.03 1154.99 370.45 1155.35 375.92 1145.92 C 381.40 1136.50 387.66 1136.62 395.23 1131.23 C 402.80 1125.84 408.47 1124.43 416.70 1119.70 C 424.92 1114.96 422.28 1102.63 424.33 1093.33 C 426.38 1084.03 426.33 1072.63 428.00 1063.00 C 429.67 1053.37 431.01 1042.80 432.00 1033.00 C 432.99 1023.20 435.68 1014.17 436.33 1004.33 C 436.98 994.49 439.98 985.24 441.78 975.78 C 443.58 966.31 446.98 957.90 458.22 959.78 C 469.46 961.66 464.24 975.64 463.00 985.00 C 461.77 994.36 460.07 1004.27 459.00 1014.00 C 457.93 1023.73 456.31 1034.15 455.01 1044.01 C 453.71 1053.86 452.29 1064.06 451.00 1074.00 C 449.72 1083.94 448.37 1094.04 447.00 1104.00
C 459.19 1101.12 473.39 1097.21 484.68 1091.68 C 495.97 1086.14 511.27 1083.92 521.68 1077.68 C 532.09 1071.43 550.39 1073.01 554.93 1060.93 C 559.46 1048.84 558.41 1030.27 561.93 1016.93 C 565.45 1003.59 565.29 986.09 568.33 972.33 C 571.37 958.57 572.83 943.12 575.33 929.33 C 577.83 915.54 580.20 899.98 583.93 886.93 C 587.65 873.87 588.26 854.05 607.00 861.00
M 1156.00 1112.00 
C 1178.60 1099.41 1193.23 1071.39 1219.00 1065.00
C 1213.34 1074.11 1204.43 1083.13 1196.75 1090.75 C 1189.08 1098.37 1179.86 1108.53 1172.75 1115.75 C 1165.64 1122.97 1148.49 1135.78 1139.75 1125.25 C 1131.01 1114.72 1141.20 1096.07 1141.99 1083.99 C 1142.78 1071.92 1151.36 1056.41 1149.00 1044.00
C 1140.65 1050.06 1135.10 1059.06 1128.25 1066.25 C 1121.39 1073.43 1115.82 1084.06 1108.70 1090.70 C 1101.58 1097.33 1095.96 1110.03 1084.98 1109.98 C 1073.99 1109.93 1067.77 1118.79 1059.25 1126.25 C 1050.74 1133.71 1043.32 1139.81 1032.78 1143.78 C 1022.23 1147.74 1005.98 1148.85 994.99 1145.01 C 984.00 1141.16 977.19 1133.21 974.02 1121.98 C 970.86 1110.74 971.48 1093.76 974.00 1082.00
C 957.03 1094.59 935.87 1097.26 915.00 1098.00
C 911.27 1108.86 903.57 1119.47 898.70 1129.70 C 893.82 1139.92 886.86 1150.55 880.25 1159.25 C 873.63 1167.94 854.98 1176.21 850.23 1162.77 C 845.48 1149.33 850.82 1131.52 851.00 1118.00 C 851.18 1104.48 850.79 1088.07 862.00 1080.00
C 866.91 1103.32 861.80 1129.23 865.00 1153.00
C 875.14 1150.89 875.10 1138.37 880.32 1130.32 C 885.55 1122.28 887.21 1113.24 892.77 1104.77 C 898.33 1096.30 899.45 1084.25 898.00 1074.00 C 896.55 1063.75 901.93 1052.79 906.77 1044.77 C 911.61 1036.75 919.61 1027.14 930.67 1031.33 C 941.73 1035.52 930.97 1050.24 930.07 1058.07 C 929.17 1065.91 918.47 1079.36 926.70 1085.30 C 934.92 1091.25 947.87 1086.32 956.08 1082.08 C 964.28 1077.83 971.14 1072.47 978.25 1066.25 C 985.36 1060.02 987.54 1052.20 995.25 1045.25 C 1002.96 1038.30 1014.64 1036.83 1024.69 1041.31 C 1034.75 1045.78 1036.38 1057.41 1033.02 1067.02 C 1029.67 1076.64 1024.26 1082.11 1018.25 1090.25 C 1012.24 1098.39 1003.90 1100.65 996.92 1106.92 C 989.95 1113.20 999.22 1127.13 1005.75 1132.25 C 1012.28 1137.38 1026.13 1134.61 1033.23 1129.23 C 1040.33 1123.85 1049.86 1120.76 1055.75 1113.75 C 1061.63 1106.74 1072.39 1102.12 1072.00 1092.00 C 1071.61 1081.88 1079.44 1070.36 1077.93 1059.93 C 1076.41 1049.50 1092.10 1039.03 1097.77 1050.23 C 1103.44 1061.43 1091.35 1072.99 1094.00 1084.00
C 1103.00 1078.06 1109.60 1066.67 1116.30 1058.30 C 1123.00 1049.93 1133.56 1041.78 1140.25 1034.25 C 1146.93 1026.72 1168.43 1018.99 1171.92 1032.08 C 1175.41 1045.16 1166.34 1060.29 1165.01 1073.01 C 1163.68 1085.72 1156.22 1098.79 1156.00 1112.00
M 806.00 1075.00 
C 810.12 1065.91 831.47 1057.42 832.00 1072.00 C 832.53 1086.59 830.95 1102.09 830.00 1116.00 C 829.05 1129.91 826.69 1145.56 829.00 1159.00 C 831.31 1172.44 828.06 1185.66 841.00 1193.00
C 813.06 1203.06 812.54 1161.63 810.01 1143.99 C 807.48 1126.36 813.54 1117.97 808.00 1103.00
C 800.00 1114.11 791.74 1124.64 783.75 1135.75 C 775.76 1146.86 766.93 1155.78 756.75 1165.75 C 746.57 1175.73 718.12 1177.86 723.00 1156.00
C 710.72 1167.87 698.88 1178.50 682.98 1183.98 C 667.07 1189.45 642.48 1188.12 632.25 1172.75 C 622.01 1157.39 622.00 1131.77 629.32 1115.32 C 636.64 1098.88 640.54 1084.28 660.22 1078.22 C 679.91 1072.16 695.09 1097.61 683.08 1113.08 C 671.06 1128.54 666.53 1140.17 648.00 1147.00
C 646.24 1157.70 654.06 1174.19 666.01 1174.99 C 677.96 1175.80 688.91 1167.47 698.25 1161.25 C 707.58 1155.02 714.82 1148.02 722.25 1139.25 C 729.68 1130.48 731.62 1117.44 737.31 1107.31 C 742.99 1097.17 747.22 1088.03 754.77 1078.77 C 762.32 1069.51 768.73 1063.43 780.08 1058.08 C 791.42 1052.72 809.73 1058.42 806.00 1075.00 Z"/>
</g>
<g fill="#FFFFFF" fill-opacity="0.96" stroke="None">
<path d="
M 1194.00 490.00 
C 1200.59 463.12 1211.09 434.82 1214.22 407.22 C 1217.35 379.62 1226.15 344.86 1208.25 320.75 C 1190.35 296.64 1155.51 312.15 1141.77 333.77 C 1128.03 355.39 1117.05 378.38 1109.98 403.98 C 1102.91 429.57 1095.52 460.96 1092.00 488.00
C 1082.07 488.13 1072.58 486.17 1063.00 485.00 C 1053.42 483.83 1044.58 483.43 1035.00 482.00 C 1025.42 480.57 1014.89 483.28 1005.67 483.67 C 996.45 484.06 989.46 488.10 981.08 491.08 C 972.70 494.05 970.60 499.93 964.75 505.75 C 958.91 511.57 962.49 526.88 969.75 521.75 C 977.02 516.62 972.37 506.39 981.75 502.75 C 991.14 499.12 995.12 494.99 1004.99 493.99 C 1014.87 492.99 1023.41 492.32 1033.00 493.00 C 1042.59 493.68 1051.90 494.47 1061.33 495.67 C 1070.76 496.87 1080.45 497.35 1090.00 498.00
C 1087.12 516.14 1087.19 535.70 1084.93 553.93 C 1082.67 572.16 1082.98 592.74 1081.98 610.98 C 1080.97 629.22 1081.40 653.69 1081.00 671.00 C 1080.60 688.31 1067.38 696.87 1060.30 710.31 C 1053.23 723.74 1044.32 734.94 1035.75 746.75 C 1027.18 758.56 1018.75 769.03 1007.75 778.75 C 996.75 788.48 985.71 800.98 970.00 802.00 C 954.29 803.02 942.80 789.21 937.99 774.01 C 933.19 758.81 934.91 736.31 936.67 719.67 C 938.44 703.03 958.13 702.06 970.92 693.92 C 983.71 685.78 994.11 679.24 1004.08 667.08 C 1014.06 654.93 1021.06 641.60 1024.00 626.00 C 1026.95 610.40 1022.51 592.82 1009.75 582.25 C 996.99 571.69 975.85 571.77 962.23 579.23 C 948.61 586.69 939.36 594.90 929.92 606.92 C 920.48 618.93 913.27 631.06 906.92 644.92 C 900.58 658.79 894.59 674.06 890.93 688.93 C 887.26 703.80 881.37 720.20 874.92 733.92 C 868.48 747.65 862.29 760.84 854.30 773.30 C 846.32 785.77 839.12 797.21 827.00 806.00
C 816.82 796.60 815.57 783.74 814.00 770.00 C 812.43 756.26 813.33 737.84 815.01 724.01 C 816.68 710.18 818.65 696.16 822.00 683.00 C 825.36 669.85 825.88 655.41 831.07 643.07 C 836.26 630.73 833.88 615.29 823.08 607.92 C 812.28 600.55 796.75 594.92 790.78 607.78 C 784.81 620.63 783.84 633.50 780.98 646.98 C 778.11 660.46 775.25 675.42 774.00 689.00 C 772.75 702.57 771.04 716.94 765.77 728.77 C 760.50 740.60 755.52 751.30 750.32 762.32 C 745.13 773.34 738.76 784.01 732.92 793.92 C 727.08 803.83 719.40 813.68 713.30 822.30 C 707.20 830.92 692.89 846.80 686.32 833.68 C 679.76 820.55 683.77 802.01 683.22 788.22 C 682.67 774.43 688.62 758.67 689.07 746.07 C 689.53 733.48 701.92 717.65 689.70 708.30 C 677.48 698.96 667.83 711.12 655.23 716.23 C 642.63 721.34 635.09 725.08 619.01 728.01 C 602.92 730.94 598.98 714.38 603.01 701.01 C 607.04 687.63 613.38 673.82 609.78 661.22 C 606.17 648.63 597.17 642.13 584.00 639.00 C 570.83 635.87 562.99 653.34 560.93 664.93 C 558.86 676.51 552.70 693.42 555.00 706.00 C 557.31 718.58 560.37 729.34 572.00 737.00
C 570.22 751.77 567.60 769.45 565.98 783.98 C 564.35 798.50 559.09 814.78 557.33 828.33 C 555.57 841.88 547.76 858.17 545.93 869.93 C 544.09 881.68 529.50 901.25 519.92 889.08 C 510.35 876.90 513.81 860.88 511.00 846.00 C 508.19 831.12 510.39 809.80 510.00 794.00 C 509.61 778.20 512.05 759.43 513.07 744.07 C 514.10 728.72 517.60 712.35 520.00 698.00 C 522.41 683.65 524.62 667.45 528.68 654.68 C 532.73 641.90 537.99 622.29 528.77 612.23 C 519.55 602.17 509.11 590.23 495.03 593.03 C 480.94 595.82 481.26 616.57 476.78 627.78 C 472.30 638.99 469.74 658.38 468.00 671.00
C 460.64 658.97 452.32 645.25 437.02 641.98 C 421.73 638.71 404.21 645.04 392.25 654.25 C 380.28 663.45 372.37 672.76 364.77 685.77 C 357.17 698.79 350.54 713.33 347.33 728.33 C 344.12 743.33 345.54 762.86 329.08 769.08 C 312.61 775.29 296.43 775.66 281.08 767.92 C 265.73 760.18 257.13 749.81 262.67 733.67 C 268.21 717.53 267.49 700.35 271.67 683.67 C 275.85 666.99 276.07 649.53 279.22 632.22 C 282.37 614.91 283.28 596.07 285.07 578.07 C 286.87 560.08 287.89 541.36 289.00 523.00 C 290.11 504.64 287.86 483.59 287.00 466.00 C 286.14 448.41 282.16 431.81 276.92 416.08 C 271.68 400.34 256.80 389.85 241.07 395.07 C 225.35 400.30 218.64 410.15 210.92 423.92 C 203.20 437.69 198.81 452.09 194.99 467.99 C 191.17 483.90 188.87 502.52 187.78 519.78 C 186.69 537.04 186.35 560.35 187.00 578.00 C 187.66 595.64 190.72 615.27 193.07 631.93 C 195.43 648.59 200.58 663.78 205.02 678.98 C 209.47 694.17 215.16 707.39 222.23 720.77 C 229.30 734.16 236.13 744.53 247.00 755.00
C 241.48 774.14 238.87 795.18 231.78 813.78 C 224.68 832.38 223.21 849.48 211.25 866.25 C 199.28 883.01 174.75 872.31 164.92 857.08 C 155.08 841.86 145.86 827.22 139.31 809.69 C 132.75 792.17 124.91 773.60 119.93 755.07 C 114.95 736.55 108.22 716.98 103.98 698.02 C 99.73 679.07 93.91 657.86 89.99 639.01 C 86.08 620.16 80.77 596.35 77.78 578.22 C 74.79 560.10 72.56 529.56 51.02 533.02 C 29.49 536.49 15.30 552.61 18.22 572.78 C 21.14 592.95 28.09 612.27 32.01 631.99 C 35.93 651.72 41.87 671.14 46.67 690.33 C 51.48 709.51 57.65 729.21 63.22 747.78 C 68.80 766.34 75.48 784.23 82.07 801.93 C 88.67 819.62 96.12 835.82 104.69 852.31 C 113.27 868.79 121.83 881.47 134.75 895.25 C 147.67 909.03 168.64 919.73 187.32 913.32 C 206.00 906.91 213.07 890.86 221.22 874.22 C 229.38 857.59 234.53 838.53 240.68 820.68 C 246.83 802.82 250.52 781.54 257.00 764.00
C 279.07 784.80 316.02 792.83 342.00 774.00
C 340.78 801.13 345.09 829.11 362.25 849.75 C 379.41 870.39 410.51 867.99 427.25 849.25 C 443.99 830.51 454.19 809.69 460.00 786.00
C 463.33 809.09 462.90 840.90 470.22 862.78 C 477.55 884.65 480.84 904.91 502.93 917.07 C 525.01 929.24 545.13 905.91 552.23 885.23 C 559.32 864.55 567.74 840.38 571.22 817.22 C 574.70 794.06 580.54 765.94 583.00 742.00
C 602.39 746.32 623.59 743.75 642.00 738.00
C 637.74 773.56 621.55 816.33 642.25 850.75 C 662.94 885.18 704.86 853.76 721.25 829.25 C 737.64 804.73 759.88 776.05 769.00 747.00
C 773.28 769.87 769.52 801.29 789.75 818.25 C 809.99 835.20 835.36 816.83 848.75 799.75 C 862.14 782.68 874.56 762.40 882.00 742.00
C 885.12 761.42 890.70 782.81 905.25 797.75 C 919.81 812.68 943.96 820.61 963.93 815.93 C 983.89 811.25 999.34 800.31 1014.25 787.25 C 1029.16 774.18 1038.55 759.40 1050.25 744.25 C 1061.95 729.09 1071.23 712.50 1082.00 697.00
C 1080.21 730.63 1086.70 768.87 1094.68 799.32 C 1102.65 829.77 1141.46 845.69 1165.92 827.92 C 1190.38 810.14 1199.69 785.41 1214.23 761.23 C 1228.77 737.05 1238.49 708.35 1250.00 683.00
C 1248.52 719.18 1294.51 749.59 1322.75 725.75 C 1351.00 701.92 1359.53 671.32 1369.00 638.00
C 1370.63 649.88 1370.27 665.45 1370.00 678.00 C 1369.73 690.55 1368.12 703.73 1368.00 716.00 C 1367.88 728.27 1366.22 742.45 1366.00 754.00 C 1365.78 765.55 1353.96 767.91 1347.25 775.25 C 1340.53 782.59 1332.84 787.16 1325.75 793.75 C 1318.67 800.34 1311.96 806.28 1304.75 812.75 C 1297.55 819.22 1290.85 825.79 1283.75 832.75 C 1276.66 839.72 1270.76 846.17 1264.25 853.25 C 1257.73 860.32 1251.65 867.19 1245.75 874.75 C 1239.85 882.32 1233.57 889.12 1228.30 897.30 C 1223.04 905.49 1217.93 913.41 1213.31 922.31 C 1208.68 931.20 1204.25 940.01 1200.78 949.78 C 1197.30 959.54 1194.02 970.63 1192.33 981.33 C 1190.64 992.03 1189.90 1008.66 1193.08 1018.92 C 1196.25 1029.19 1200.60 1036.34 1208.25 1043.75 C 1215.90 1051.17 1222.10 1055.84 1231.93 1060.07 C 1241.75 1064.31 1252.90 1066.63 1264.00 1068.00 C 1275.10 1069.37 1289.97 1066.81 1299.99 1063.99 C 1310.01 1061.17 1320.16 1058.47 1328.25 1052.25 C 1336.35 1046.03 1343.07 1040.42 1349.70 1032.70 C 1356.32 1024.98 1361.01 1017.85 1366.23 1009.23 C 1371.45 1000.61 1375.83 992.27 1379.68 982.68 C 1383.53 973.08 1386.76 962.98 1389.68 952.68 C 1392.60 942.37 1395.66 931.86 1398.00 921.00 C 1400.35 910.14 1401.95 898.28 1404.02 887.02 C 1406.10 875.76 1408.01 863.99 1409.22 852.22 C 1410.43 840.45 1413.22 828.04 1414.00 816.00 C 1414.78 803.96 1416.83 791.10 1417.00 779.00 C 1417.18 766.90 1421.05 754.01 1420.00 742.00 C 1418.95 729.99 1425.51 722.84 1434.25 716.25 C 1443.00 709.67 1447.71 704.52 1455.25 697.25 C 1462.79 689.97 1468.77 685.80 1475.75 677.75 C 1482.73 669.70 1488.71 665.42 1495.25 656.25 C 1501.79 647.07 1506.11 644.98 1512.23 633.23 C 1518.35 621.48 1503.83 621.46 1499.75 632.75 C 1495.68 644.05 1487.49 646.12 1481.92 654.92 C 1476.35 663.72 1469.33 668.28 1462.75 675.75 C 1456.17 683.22 1449.16 688.54 1442.23 695.23 C 1435.30 701.92 1427.86 707.13 1421.00 714.00
C 1421.23 702.57 1422.80 691.42 1423.00 680.00 C 1423.21 668.58 1423.63 657.38 1424.00 646.00 C 1424.37 634.62 1423.96 622.14 1425.00 611.00 C 1426.04 599.86 1424.37 586.97 1425.00 576.00 C 1425.63 565.03 1425.14 552.78 1422.99 543.01 C 1420.84 533.23 1417.45 526.15 1411.25 518.75 C 1405.05 511.35 1396.89 507.31 1388.00 509.00 C 1379.12 510.70 1370.63 516.70 1370.00 527.00 C 1369.37 537.30 1371.47 550.30 1371.00 561.00 C 1370.53 571.70 1371.05 583.94 1368.98 593.98 C 1366.90 604.01 1365.34 614.41 1362.93 623.93 C 1360.51 633.44 1357.86 642.07 1354.98 650.98 C 1352.09 659.88 1348.75 668.78 1344.92 676.92 C 1341.10 685.07 1338.04 692.53 1330.25 697.25 C 1322.45 701.96 1311.97 704.11 1305.75 696.25 C 1299.53 688.39 1298.37 678.13 1298.00 668.00 C 1297.63 657.87 1298.47 644.78 1300.01 635.01 C 1301.55 625.24 1302.82 613.42 1305.22 604.22 C 1307.62 595.02 1307.56 584.23 1300.25 577.75 C 1292.93 571.28 1284.72 567.85 1275.01 568.01 C 1265.30 568.17 1259.27 577.78 1257.78 586.78 C 1256.29 595.78 1251.98 605.26 1251.00 615.00 C 1250.02 624.74 1247.37 637.78 1248.00 648.00 C 1248.63 658.22 1244.65 667.29 1240.93 675.93 C 1237.20 684.57 1234.32 692.36 1230.78 700.78 C 1227.23 709.19 1223.38 717.54 1219.77 725.77 C 1216.17 734.00 1212.16 741.35 1208.31 749.31 C 1204.45 757.26 1200.52 764.45 1195.92 771.92 C 1191.33 779.40 1187.60 787.19 1182.25 794.25 C 1176.89 801.31 1172.93 807.67 1164.07 811.07 C 1155.21 814.48 1144.80 808.76 1140.77 800.23 C 1136.74 791.70 1132.80 784.66 1131.00 775.00 C 1129.20 765.34 1127.06 755.29 1126.00 745.00 C 1124.94 734.71 1124.13 721.66 1124.00 711.00 C 1123.87 700.34 1121.86 687.58 1123.00 677.00 C 1124.14 666.42 1122.21 651.75 1124.08 642.08 C 1125.96 632.41 1134.55 629.25 1137.70 620.70 C 1140.84 612.14 1146.12 606.14 1150.08 598.08 C 1154.03 590.01 1157.67 581.73 1161.69 573.69 C 1165.72 565.66 1168.09 557.13 1172.08 549.08 C 1176.06 541.02 1178.03 531.00 1182.07 523.07 C 1186.12 515.15 1185.01 502.04 1194.99 500.99 C 1204.98 499.94 1216.70 499.12 1227.00 498.00 C 1237.30 496.87 1247.73 494.83 1257.98 492.98 C 1268.23 491.12 1275.54 488.48 1285.98 485.98 C 1296.41 483.47 1300.68 479.37 1311.92 475.92 C 1323.17 472.47 1321.30 459.78 1310.08 465.08 C 1298.85 470.37 1295.22 471.09 1285.02 475.02 C 1274.83 478.96 1266.52 480.02 1256.22 482.22 C 1245.92 484.42 1236.87 486.36 1226.22 487.22 C 1215.58 488.09 1204.88 489.81 1194.00 490.00
M 1182.00 490.00 
C 1167.69 491.74 1152.68 490.75 1138.00 491.00
C 1139.34 474.99 1143.18 456.33 1145.99 440.99 C 1148.81 425.65 1154.66 409.60 1158.32 395.32 C 1161.98 381.05 1170.49 366.40 1176.25 354.25 C 1182.02 342.11 1201.05 325.08 1205.99 342.01 C 1210.93 358.93 1207.62 379.98 1205.67 396.67 C 1203.72 413.36 1199.26 428.72 1195.67 444.67 C 1192.09 460.62 1186.74 474.51 1182.00 490.00
M 256.00 405.00 
C 280.85 432.87 277.45 471.32 278.00 509.00 C 278.55 546.68 274.02 589.55 269.22 626.22 C 264.42 662.89 259.45 698.82 251.00 734.00
C 238.03 709.54 231.43 686.76 226.07 658.93 C 220.72 631.10 217.53 596.37 217.00 567.00 C 216.47 537.63 218.63 501.14 223.99 473.99 C 229.36 446.84 232.44 420.40 256.00 405.00
M 1179.00 501.00 
C 1163.80 541.59 1148.50 583.31 1125.00 620.00
C 1127.19 579.97 1131.22 540.40 1136.00 501.00
C 1150.33 501.00 1164.67 501.00 1179.00 501.00
M 942.00 695.00 
C 945.80 681.42 951.93 665.67 956.78 652.78 C 961.62 639.88 969.60 625.51 976.92 614.92 C 984.24 604.32 1001.40 588.67 1010.77 601.23 C 1020.14 613.79 1012.44 631.45 1006.70 643.70 C 1000.95 655.94 990.52 666.07 979.77 674.77 C 969.02 683.47 955.23 690.97 942.00 695.00
M 441.00 663.00 
C 454.18 663.68 462.26 681.53 462.98 694.02 C 463.69 706.52 463.00 730.26 461.00 744.00 C 459.01 757.75 453.02 772.80 449.07 786.07 C 445.12 799.35 439.79 811.73 432.70 823.70 C 425.60 835.66 406.70 839.92 400.08 825.92 C 393.46 811.92 393.70 793.60 394.00 778.00 C 394.30 762.40 396.09 742.49 398.33 728.33 C 400.57 714.17 405.32 698.81 411.77 687.77 C 418.22 676.73 427.41 662.30 441.00 663.00
M 1364.00 776.00 
C 1362.29 816.37 1356.13 867.64 1349.67 905.67 C 1343.21 943.70 1334.42 983.02 1312.25 1012.25 C 1290.08 1041.47 1243.54 1061.82 1214.75 1034.25 C 1185.96 1006.67 1208.41 953.94 1223.92 924.92 C 1239.43 895.90 1263.40 868.57 1287.25 844.25 C 1311.09 819.93 1338.01 797.19 1364.00 776.00 Z"/>
</g>
<g fill="#000000" fill-opacity="0.00" stroke="None">
<path d="
M 1182.00 490.00 
C 1186.74 474.51 1192.09 460.62 1195.67 444.67 C 1199.26 428.72 1203.72 413.36 1205.67 396.67 C 1207.62 379.98 1210.93 358.93 1205.99 342.01 C 1201.05 325.08 1182.02 342.11 1176.25 354.25 C 1170.49 366.40 1161.98 381.05 1158.32 395.32 C 1154.66 409.60 1148.81 425.65 1145.99 440.99 C 1143.18 456.33 1139.34 474.99 1138.00 491.00
C 1152.68 490.75 1167.69 491.74 1182.00 490.00 Z"/>
</g>
<g fill="#000000" fill-opacity="0.00" stroke="None">
<path d="
M 256.00 405.00 
C 232.44 420.40 229.36 446.84 223.99 473.99 C 218.63 501.14 216.47 537.63 217.00 567.00 C 217.53 596.37 220.72 631.10 226.07 658.93 C 231.43 686.76 238.03 709.54 251.00 734.00
C 259.45 698.82 264.42 662.89 269.22 626.22 C 274.02 589.55 278.55 546.68 278.00 509.00 C 277.45 471.32 280.85 432.87 256.00 405.00 Z"/>
</g>
<g fill="#000000" fill-opacity="0.00" stroke="None">
<path d="
M 1179.00 501.00 
C 1164.67 501.00 1150.33 501.00 1136.00 501.00
C 1131.22 540.40 1127.19 579.97 1125.00 620.00
C 1148.50 583.31 1163.80 541.59 1179.00 501.00 Z"/>
</g>
<g fill="#FFFFFF" fill-opacity="0.97" stroke="None">
<path d="
M 841.00 506.00 
C 816.15 500.85 818.04 527.67 810.32 543.32 C 802.61 558.98 808.31 580.63 830.00 583.00 C 851.69 585.37 855.24 563.57 862.67 547.67 C 870.11 531.78 858.51 509.63 841.00 506.00 Z"/>
</g>
<g fill="#000000" fill-opacity="0.00" stroke="None">
<path d="
M 942.00 695.00 
C 955.23 690.97 969.02 683.47 979.77 674.77 C 990.52 666.07 1000.95 655.94 1006.70 643.70 C 1012.44 631.45 1020.14 613.79 1010.77 601.23 C 1001.40 588.67 984.24 604.32 976.92 614.92 C 969.60 625.51 961.62 639.88 956.78 652.78 C 951.93 665.67 945.80 681.42 942.00 695.00 Z"/>
</g>
<g fill="#000000" fill-opacity="0.00" stroke="None">
<path d="
M 441.00 663.00 
C 427.41 662.30 418.22 676.73 411.77 687.77 C 405.32 698.81 400.57 714.17 398.33 728.33 C 396.09 742.49 394.30 762.40 394.00 778.00 C 393.70 793.60 393.46 811.92 400.08 825.92 C 406.70 839.92 425.60 835.66 432.70 823.70 C 439.79 811.73 445.12 799.35 449.07 786.07 C 453.02 772.80 459.01 757.75 461.00 744.00 C 463.00 730.26 463.69 706.52 462.98 694.02 C 462.26 681.53 454.18 663.68 441.00 663.00 Z"/>
</g>
<g fill="#000000" fill-opacity="0.00" stroke="None">
<path d="
M 1364.00 776.00 
C 1338.01 797.19 1311.09 819.93 1287.25 844.25 C 1263.40 868.57 1239.43 895.90 1223.92 924.92 C 1208.41 953.94 1185.96 1006.67 1214.75 1034.25 C 1243.54 1061.82 1290.08 1041.47 1312.25 1012.25 C 1334.42 983.02 1343.21 943.70 1349.67 905.67 C 1356.13 867.64 1362.29 816.37 1364.00 776.00 Z"/>
</g>
<g fill="#38B6FF" fill-opacity="0.95" stroke="None">
<path d="
M 607.00 861.00 
C 588.26 854.05 587.65 873.87 583.93 886.93 C 580.20 899.98 577.83 915.54 575.33 929.33 C 572.83 943.12 571.37 958.57 568.33 972.33 C 565.29 986.09 565.45 1003.59 561.93 1016.93 C 558.41 1030.27 559.46 1048.84 554.93 1060.93 C 550.39 1073.01 532.09 1071.43 521.68 1077.68 C 511.27 1083.92 495.97 1086.14 484.68 1091.68 C 473.39 1097.21 459.19 1101.12 447.00 1104.00
C 448.37 1094.04 449.72 1083.94 451.00 1074.00 C 452.29 1064.06 453.71 1053.86 455.01 1044.01 C 456.31 1034.15 457.93 1023.73 459.00 1014.00 C 460.07 1004.27 461.77 994.36 463.00 985.00 C 464.24 975.64 469.46 961.66 458.22 959.78 C 446.98 957.90 443.58 966.31 441.78 975.78 C 439.98 985.24 436.98 994.49 436.33 1004.33 C 435.68 1014.17 432.99 1023.20 432.00 1033.00 C 431.01 1042.80 429.67 1053.37 428.00 1063.00 C 426.33 1072.63 426.38 1084.03 424.33 1093.33 C 422.28 1102.63 424.92 1114.96 416.70 1119.70 C 408.47 1124.43 402.80 1125.84 395.23 1131.23 C 387.66 1136.62 381.40 1136.50 375.92 1145.92 C 370.45 1155.35 388.03 1154.99 394.93 1150.93 C 401.82 1146.87 410.38 1143.30 418.00 1141.00
C 418.41 1157.42 415.75 1176.19 415.00 1192.00 C 414.25 1207.81 411.56 1227.23 411.00 1242.00 C 410.44 1256.77 408.11 1283.08 427.00 1274.00
C 427.66 1225.10 436.12 1175.92 444.00 1128.00
C 479.69 1113.78 514.40 1096.02 551.00 1085.00
C 551.23 1094.51 549.29 1103.94 548.00 1113.00 C 546.71 1122.06 546.22 1131.01 544.99 1139.99 C 543.76 1148.98 542.76 1157.95 541.99 1166.99 C 541.22 1176.03 539.57 1184.98 539.00 1194.00 C 538.43 1203.02 536.56 1212.12 536.00 1221.00 C 535.44 1229.88 534.19 1239.85 533.33 1248.33 C 532.47 1256.81 531.67 1267.84 531.67 1275.33 C 531.67 1282.82 530.66 1300.02 539.99 1297.99 C 549.32 1295.96 543.45 1281.75 546.22 1274.22 C 549.00 1266.69 548.22 1256.28 550.00 1248.00 C 551.78 1239.72 551.83 1229.81 553.22 1221.22 C 554.61 1212.63 556.23 1203.85 557.01 1195.01 C 557.79 1186.17 560.15 1177.87 561.00 1169.00 C 561.85 1160.13 563.53 1151.52 564.67 1142.67 C 565.81 1133.83 567.51 1124.49 568.67 1115.67 C 569.83 1106.85 571.71 1098.76 573.00 1090.00 C 574.30 1081.25 574.49 1073.33 583.98 1070.98 C 593.46 1068.62 597.28 1066.67 606.31 1063.31 C 615.33 1059.94 621.71 1061.76 631.93 1060.93 C 642.14 1060.09 637.96 1048.22 629.02 1047.98 C 620.09 1047.73 612.24 1048.33 603.67 1050.67 C 595.10 1053.01 587.34 1053.37 579.00 1056.00
C 586.00 990.40 601.04 926.84 607.00 861.00 Z"/>
</g>
<g fill="#38B5FF" fill-opacity="0.94" stroke="None">
<path d="
M 1156.00 1112.00 
C 1156.22 1098.79 1163.68 1085.72 1165.01 1073.01 C 1166.34 1060.29 1175.41 1045.16 1171.92 1032.08 C 1168.43 1018.99 1146.93 1026.72 1140.25 1034.25 C 1133.56 1041.78 1123.00 1049.93 1116.30 1058.30 C 1109.60 1066.67 1103.00 1078.06 1094.00 1084.00
C 1091.35 1072.99 1103.44 1061.43 1097.77 1050.23 C 1092.10 1039.03 1076.41 1049.50 1077.93 1059.93 C 1079.44 1070.36 1071.61 1081.88 1072.00 1092.00 C 1072.39 1102.12 1061.63 1106.74 1055.75 1113.75 C 1049.86 1120.76 1040.33 1123.85 1033.23 1129.23 C 1026.13 1134.61 1012.28 1137.38 1005.75 1132.25 C 999.22 1127.13 989.95 1113.20 996.92 1106.92 C 1003.90 1100.65 1012.24 1098.39 1018.25 1090.25 C 1024.26 1082.11 1029.67 1076.64 1033.02 1067.02 C 1036.38 1057.41 1034.75 1045.78 1024.69 1041.31 C 1014.64 1036.83 1002.96 1038.30 995.25 1045.25 C 987.54 1052.20 985.36 1060.02 978.25 1066.25 C 971.14 1072.47 964.28 1077.83 956.08 1082.08 C 947.87 1086.32 934.92 1091.25 926.70 1085.30 C 918.47 1079.36 929.17 1065.91 930.07 1058.07 C 930.97 1050.24 941.73 1035.52 930.67 1031.33 C 919.61 1027.14 911.61 1036.75 906.77 1044.77 C 901.93 1052.79 896.55 1063.75 898.00 1074.00 C 899.45 1084.25 898.33 1096.30 892.77 1104.77 C 887.21 1113.24 885.55 1122.28 880.32 1130.32 C 875.10 1138.37 875.14 1150.89 865.00 1153.00
C 861.80 1129.23 866.91 1103.32 862.00 1080.00
C 850.79 1088.07 851.18 1104.48 851.00 1118.00 C 850.82 1131.52 845.48 1149.33 850.23 1162.77 C 854.98 1176.21 873.63 1167.94 880.25 1159.25 C 886.86 1150.55 893.82 1139.92 898.70 1129.70 C 903.57 1119.47 911.27 1108.86 915.00 1098.00
C 935.87 1097.26 957.03 1094.59 974.00 1082.00
C 971.48 1093.76 970.86 1110.74 974.02 1121.98 C 977.19 1133.21 984.00 1141.16 994.99 1145.01 C 1005.98 1148.85 1022.23 1147.74 1032.78 1143.78 C 1043.32 1139.81 1050.74 1133.71 1059.25 1126.25 C 1067.77 1118.79 1073.99 1109.93 1084.98 1109.98 C 1095.96 1110.03 1101.58 1097.33 1108.70 1090.70 C 1115.82 1084.06 1121.39 1073.43 1128.25 1066.25 C 1135.10 1059.06 1140.65 1050.06 1149.00 1044.00
C 1151.36 1056.41 1142.78 1071.92 1141.99 1083.99 C 1141.20 1096.07 1131.01 1114.72 1139.75 1125.25 C 1148.49 1135.78 1165.64 1122.97 1172.75 1115.75 C 1179.86 1108.53 1189.08 1098.37 1196.75 1090.75 C 1204.43 1083.13 1213.34 1074.11 1219.00 1065.00
C 1193.23 1071.39 1178.60 1099.41 1156.00 1112.00
M 1012.00 1054.00 
C 1015.30 1067.17 1006.16 1080.22 997.00 1089.00
C 996.55 1075.70 1001.61 1062.47 1012.00 1054.00 Z"/>
</g>
<g fill="#000000" fill-opacity="0.00" stroke="None">
<path d="
M 1012.00 1054.00 
C 1001.61 1062.47 996.55 1075.70 997.00 1089.00
C 1006.16 1080.22 1015.30 1067.17 1012.00 1054.00 Z"/>
</g>
<g fill="#38B5FF" fill-opacity="0.95" stroke="None">
<path d="
M 806.00 1075.00 
C 809.73 1058.42 791.42 1052.72 780.08 1058.08 C 768.73 1063.43 762.32 1069.51 754.77 1078.77 C 747.22 1088.03 742.99 1097.17 737.31 1107.31 C 731.62 1117.44 729.68 1130.48 722.25 1139.25 C 714.82 1148.02 707.58 1155.02 698.25 1161.25 C 688.91 1167.47 677.96 1175.80 666.01 1174.99 C 654.06 1174.19 646.24 1157.70 648.00 1147.00
C 666.53 1140.17 671.06 1128.54 683.08 1113.08 C 695.09 1097.61 679.91 1072.16 660.22 1078.22 C 640.54 1084.28 636.64 1098.88 629.32 1115.32 C 622.00 1131.77 622.01 1157.39 632.25 1172.75 C 642.48 1188.12 667.07 1189.45 682.98 1183.98 C 698.88 1178.50 710.72 1167.87 723.00 1156.00
C 718.12 1177.86 746.57 1175.73 756.75 1165.75 C 766.93 1155.78 775.76 1146.86 783.75 1135.75 C 791.74 1124.64 800.00 1114.11 808.00 1103.00
C 813.54 1117.97 807.48 1126.36 810.01 1143.99 C 812.54 1161.63 813.06 1203.06 841.00 1193.00
C 828.06 1185.66 831.31 1172.44 829.00 1159.00 C 826.69 1145.56 829.05 1129.91 830.00 1116.00 C 830.95 1102.09 832.53 1086.59 832.00 1072.00 C 831.47 1057.42 810.12 1065.91 806.00 1075.00
M 786.00 1071.00 
C 789.36 1082.76 793.62 1097.39 786.70 1107.70 C 779.77 1118.00 775.07 1127.94 766.75 1136.75 C 758.43 1145.56 751.93 1155.58 741.00 1160.00
C 744.02 1126.67 760.60 1093.08 786.00 1071.00
M 665.00 1094.00 
C 668.68 1107.81 657.36 1119.47 650.00 1130.00
C 649.00 1117.65 653.80 1102.14 665.00 1094.00 Z"/>
</g>
<g fill="#000000" fill-opacity="0.00" stroke="None">
<path d="
M 786.00 1071.00 
C 760.60 1093.08 744.02 1126.67 741.00 1160.00
C 751.93 1155.58 758.43 1145.56 766.75 1136.75 C 775.07 1127.94 779.77 1118.00 786.70 1107.70 C 793.62 1097.39 789.36 1082.76 786.00 1071.00 Z"/>
</g>
<g fill="#000000" fill-opacity="0.00" stroke="None">
<path d="
M 665.00 1094.00 
C 653.80 1102.14 649.00 1117.65 650.00 1130.00
C 657.36 1119.47 668.68 1107.81 665.00 1094.00 Z"/>
</g>
</svg>